<svg width="260" height="229" viewBox="0 0 260 229" fill="none" xmlns="http://www.w3.org/2000/svg">
<g clip-path="url(#clip0_427_963)">
<path d="M67.5618 152.93H46.5049V158.63H67.5618V152.93Z" fill="#F4F4F4"/>
<path opacity="0.05" d="M52.0916 152.93H49.3325V158.63H52.0916V152.93Z" fill="#073341"/>
<path d="M64.8711 154.169H53.3987V157.547H64.8711V154.169Z" fill="white"/>
<path d="M84.3577 153.674L64.7922 145.724L62.34 150.947L81.9054 158.897L84.3577 153.674Z" fill="#F4F4F4"/>
<path opacity="0.05" d="M84.3577 153.674L64.7922 145.724L62.34 150.947L81.9054 158.897L84.3577 153.674Z" fill="#073341"/>
<path d="M81.7303 152.606L79.1665 151.565L76.7142 156.788L79.278 157.829L81.7303 152.606Z" fill="white"/>
<path d="M77.419 152.206L66.7593 147.875L65.3061 150.97L75.9658 155.301L77.419 152.206Z" fill="white"/>
<path opacity="0.05" d="M84.3942 225.134H79.1025V228.422H84.3942V225.134Z" fill="#073341"/>
<path opacity="0.05" d="M30.2931 225.134H25.0015V228.422H30.2931V225.134Z" fill="#073341"/>
<path d="M89.245 158.897H20.1509V225.023H89.245V158.897Z" fill="#F4F4F4"/>
<path opacity="0.03" d="M89.245 158.897H20.1509V225.023H89.245V158.897Z" fill="#073341"/>
<path d="M102.049 158.897H32.9551V225.023H102.049V158.897Z" fill="#F4F4F4"/>
<path opacity="0.05" d="M97.1984 225.134H91.9067V228.422H97.1984V225.134Z" fill="#073341"/>
<path opacity="0.05" d="M43.0973 225.134H37.8057V228.422H43.0973V225.134Z" fill="#073341"/>
<path opacity="0.7" d="M99.4557 161.994H35.5488V174.698H99.4557V161.994Z" fill="white"/>
<path opacity="0.7" d="M99.4557 177.808H35.5488V190.512H99.4557V177.808Z" fill="white"/>
<path opacity="0.7" d="M99.4557 193.621H35.5488V206.325H99.4557V193.621Z" fill="white"/>
<path opacity="0.05" d="M67.5023 170.124C68.5576 170.124 69.4131 169.328 69.4131 168.346C69.4131 167.365 68.5576 166.569 67.5023 166.569C66.447 166.569 65.5916 167.365 65.5916 168.346C65.5916 169.328 66.447 170.124 67.5023 170.124Z" fill="#073341"/>
<path opacity="0.05" d="M67.5023 185.938C68.5576 185.938 69.4131 185.142 69.4131 184.16C69.4131 183.178 68.5576 182.382 67.5023 182.382C66.447 182.382 65.5916 183.178 65.5916 184.16C65.5916 185.142 66.447 185.938 67.5023 185.938Z" fill="#073341"/>
<path opacity="0.05" d="M67.5023 201.751C68.5576 201.751 69.4131 200.955 69.4131 199.973C69.4131 198.992 68.5576 198.196 67.5023 198.196C66.447 198.196 65.5916 198.992 65.5916 199.973C65.5916 200.955 66.447 201.751 67.5023 201.751Z" fill="#073341"/>
<path opacity="0.7" d="M99.4557 209.791H35.5488V222.495H99.4557V209.791Z" fill="white"/>
<path opacity="0.05" d="M67.5023 217.921C68.5576 217.921 69.4131 217.125 69.4131 216.143C69.4131 215.162 68.5576 214.366 67.5023 214.366C66.447 214.366 65.5916 215.162 65.5916 216.143C65.5916 217.125 66.447 217.921 67.5023 217.921Z" fill="#073341"/>
<path d="M0.1835 228.877H259.815C259.864 228.877 259.911 228.859 259.945 228.827C259.98 228.795 259.999 228.752 259.999 228.707C259.999 228.661 259.98 228.618 259.945 228.586C259.911 228.554 259.864 228.536 259.815 228.536H0.1835C0.134833 228.536 0.088159 228.554 0.053746 228.586C0.019333 228.618 0 228.661 0 228.707C0 228.752 0.019333 228.795 0.053746 228.827C0.088159 228.859 0.134833 228.877 0.1835 228.877Z" fill="#073341"/>
<g opacity="0.65">
<path opacity="0.65" d="M0.1835 228.877H259.815C259.864 228.877 259.911 228.859 259.945 228.827C259.98 228.795 259.999 228.752 259.999 228.707C259.999 228.661 259.98 228.618 259.945 228.586C259.911 228.554 259.864 228.536 259.815 228.536H0.1835C0.134833 228.536 0.088159 228.554 0.053746 228.586C0.019333 228.618 0 228.661 0 228.707C0 228.752 0.019333 228.795 0.053746 228.827C0.088159 228.859 0.134833 228.877 0.1835 228.877Z" fill="#073341"/>
</g>
<path d="M242.247 228.778L242.762 228.686L234.715 154.298L234.2 154.39L242.247 228.778Z" fill="#494949"/>
<path d="M212.285 228.778L212.799 228.686L204.753 154.298L204.238 154.39L212.285 228.778Z" fill="#494949"/>
<path d="M146.054 228.778L145.54 228.686L153.586 154.298L154.101 154.39L146.054 228.778Z" fill="#494949"/>
<path d="M176.017 228.778L175.502 228.686L183.548 154.298L184.063 154.39L176.017 228.778Z" fill="#494949"/>
<path d="M186.686 121.558L181.985 154.31L182.505 154.375L187.206 121.622L186.686 121.558Z" fill="#494949"/>
<path d="M240.641 121.558L235.94 154.31L236.46 154.375L241.16 121.622L240.641 121.558Z" fill="#494949"/>
<path d="M182.032 156.742H234.807C236.231 156.742 237.385 155.669 237.385 154.344V154.344C237.385 153.019 236.231 151.945 234.807 151.945H182.032C180.608 151.945 179.454 153.019 179.454 154.344V154.344C179.454 155.669 180.608 156.742 182.032 156.742Z" fill="#073341"/>
<path opacity="0.8" d="M182.032 156.742H234.807C236.231 156.742 237.385 155.669 237.385 154.344V154.344C237.385 153.019 236.231 151.945 234.807 151.945H182.032C180.608 151.945 179.454 153.019 179.454 154.344V154.344C179.454 155.669 180.608 156.742 182.032 156.742Z" fill="white"/>
<path d="M179.192 154.345C179.192 153.644 179.492 152.972 180.024 152.477C180.557 151.981 181.279 151.702 182.032 151.702H234.807C235.56 151.702 236.283 151.98 236.815 152.476C237.348 152.971 237.647 153.643 237.647 154.344C237.647 155.045 237.348 155.717 236.815 156.212C236.283 156.708 235.56 156.986 234.807 156.986H182.032C181.279 156.985 180.558 156.707 180.025 156.212C179.493 155.717 179.193 155.045 179.192 154.345ZM182.032 152.19C181.418 152.19 180.829 152.417 180.395 152.821C179.96 153.226 179.716 153.774 179.716 154.345C179.716 154.916 179.96 155.464 180.395 155.868C180.829 156.273 181.418 156.5 182.032 156.5H234.807C235.421 156.5 236.01 156.273 236.445 155.868C236.879 155.464 237.123 154.916 237.123 154.345C237.123 153.774 236.879 153.226 236.445 152.821C236.01 152.417 235.421 152.19 234.807 152.19H182.032Z" fill="#073341"/>
<path d="M153.067 156.742H205.841C207.265 156.742 208.419 155.669 208.419 154.344V154.344C208.419 153.019 207.265 151.945 205.841 151.945H153.067C151.643 151.945 150.488 153.019 150.488 154.344V154.344C150.488 155.669 151.643 156.742 153.067 156.742Z" fill="white"/>
<path d="M150.226 154.345C150.227 153.644 150.527 152.973 151.059 152.477C151.592 151.982 152.314 151.703 153.067 151.703H205.841C206.595 151.703 207.317 151.981 207.85 152.477C208.382 152.972 208.682 153.644 208.682 154.345C208.682 155.046 208.382 155.718 207.85 156.213C207.317 156.709 206.595 156.987 205.841 156.987H153.067C152.314 156.986 151.592 156.708 151.059 156.212C150.527 155.717 150.227 155.046 150.226 154.345ZM153.067 152.19C152.452 152.19 151.863 152.417 151.429 152.821C150.995 153.226 150.751 153.774 150.751 154.345C150.751 154.916 150.995 155.464 151.429 155.869C151.863 156.273 152.452 156.5 153.067 156.5H205.841C206.456 156.5 207.045 156.273 207.479 155.869C207.913 155.464 208.157 154.916 208.157 154.345C208.157 153.774 207.913 153.226 207.479 152.821C207.045 152.417 206.456 152.19 205.841 152.19H153.067Z" fill="#073341"/>
<path d="M189.579 121.591H240.762C241.599 121.591 242.407 121.308 243.036 120.794C243.665 120.28 244.071 119.572 244.179 118.8L247.564 94.6126C247.628 94.1605 247.587 93.701 247.444 93.2649C247.301 92.8287 247.06 92.4259 246.737 92.0834C246.413 91.7408 246.015 91.4663 245.568 91.2783C245.122 91.0903 244.638 90.9931 244.148 90.9931H192.964C192.127 90.9931 191.319 91.2765 190.69 91.7902C190.061 92.3039 189.655 93.0129 189.547 93.7849L186.161 117.972C186.098 118.424 186.139 118.883 186.282 119.32C186.425 119.756 186.666 120.159 186.989 120.501C187.313 120.844 187.711 121.118 188.158 121.306C188.605 121.494 189.089 121.591 189.579 121.591Z" fill="#073341"/>
<path opacity="0.8" d="M189.579 121.591H240.762C241.599 121.591 242.407 121.308 243.036 120.794C243.665 120.28 244.071 119.572 244.179 118.8L247.564 94.6126C247.628 94.1605 247.587 93.701 247.444 93.2649C247.301 92.8287 247.06 92.4259 246.737 92.0834C246.413 91.7408 246.015 91.4663 245.568 91.2783C245.122 91.0903 244.638 90.9931 244.148 90.9931H192.964C192.127 90.9931 191.319 91.2765 190.69 91.7902C190.061 92.3039 189.655 93.0129 189.547 93.7849L186.161 117.972C186.098 118.424 186.139 118.883 186.282 119.32C186.425 119.756 186.666 120.159 186.989 120.501C187.313 120.844 187.711 121.118 188.158 121.306C188.605 121.494 189.089 121.591 189.579 121.591Z" fill="white"/>
<path d="M186.793 120.662C186.445 120.293 186.186 119.86 186.032 119.391C185.878 118.921 185.834 118.427 185.902 117.94L189.287 93.7534C189.405 92.9235 189.843 92.1617 190.519 91.6092C191.195 91.0567 192.064 90.7512 192.964 90.7492H244.147C244.675 90.7492 245.196 90.8538 245.677 91.0561C246.157 91.2584 246.586 91.5538 246.934 91.9224C247.282 92.291 247.541 92.7245 247.695 93.1938C247.848 93.6631 247.892 94.1575 247.824 94.644L244.439 118.831C244.321 119.661 243.883 120.423 243.207 120.975C242.53 121.528 241.662 121.833 240.762 121.835H189.579C189.052 121.835 188.53 121.73 188.05 121.528C187.57 121.326 187.141 121.03 186.793 120.662ZM192.964 91.2369C192.191 91.2388 191.446 91.5012 190.865 91.9756C190.285 92.45 189.909 93.1041 189.808 93.8166L186.422 118.004C186.364 118.421 186.402 118.846 186.534 119.249C186.666 119.652 186.888 120.024 187.187 120.34C187.486 120.657 187.854 120.91 188.266 121.084C188.679 121.258 189.126 121.348 189.579 121.347H240.762C241.535 121.346 242.28 121.084 242.861 120.609C243.442 120.135 243.817 119.481 243.919 118.768L247.304 94.5814C247.363 94.1637 247.325 93.7392 247.193 93.3362C247.061 92.9332 246.838 92.5611 246.539 92.2446C246.241 91.9281 245.873 91.6745 245.46 91.5008C245.048 91.3271 244.6 91.2372 244.147 91.2372L192.964 91.2369Z" fill="#073341"/>
<path d="M186.685 121.591H237.869C238.706 121.591 239.514 121.308 240.143 120.794C240.771 120.28 241.178 119.572 241.286 118.8L244.672 94.6126C244.735 94.1605 244.694 93.701 244.551 93.2649C244.408 92.8287 244.167 92.4259 243.844 92.0834C243.52 91.7408 243.122 91.4663 242.675 91.2783C242.229 91.0903 241.745 90.9931 241.254 90.9931H190.07C189.234 90.9931 188.425 91.2765 187.797 91.7902C187.168 92.3039 186.762 93.0129 186.654 93.7849L183.268 117.972C183.205 118.424 183.246 118.883 183.389 119.319C183.531 119.755 183.772 120.158 184.096 120.501C184.419 120.843 184.817 121.118 185.264 121.306C185.71 121.494 186.195 121.591 186.685 121.591Z" fill="white"/>
<path d="M183.899 120.662C183.551 120.293 183.291 119.86 183.138 119.391C182.984 118.921 182.94 118.427 183.007 117.94L186.393 93.7534C186.511 92.9235 186.949 92.1616 187.625 91.6091C188.301 91.0566 189.17 90.7511 190.07 90.7492H241.253C241.78 90.7492 242.302 90.8538 242.782 91.0561C243.263 91.2584 243.691 91.5538 244.039 91.9224C244.387 92.291 244.647 92.7245 244.8 93.1938C244.954 93.6631 244.998 94.1575 244.93 94.644L241.545 118.831C241.426 119.661 240.989 120.422 240.313 120.975C239.637 121.527 238.769 121.833 237.869 121.835H186.685C186.157 121.835 185.636 121.73 185.156 121.528C184.675 121.326 184.247 121.03 183.899 120.662ZM190.07 91.2369C189.298 91.2386 188.552 91.501 187.971 91.9754C187.391 92.4498 187.015 93.104 186.913 93.8166L183.528 118.004C183.469 118.421 183.507 118.846 183.639 119.249C183.771 119.652 183.994 120.024 184.293 120.34C184.592 120.657 184.959 120.91 185.372 121.084C185.784 121.258 186.232 121.348 186.685 121.347H237.869C238.641 121.346 239.387 121.084 239.968 120.609C240.549 120.135 240.924 119.481 241.026 118.768L244.411 94.5816C244.47 94.1639 244.432 93.7394 244.3 93.3364C244.168 92.9334 243.945 92.5613 243.646 92.2447C243.348 91.9282 242.98 91.6746 242.567 91.5009C242.155 91.3271 241.707 91.2372 241.254 91.2372L190.07 91.2369Z" fill="#073341"/>
<path d="M193.953 52.0545C193.953 52.0545 190.931 49.259 190.899 43.7063C190.872 39.4069 194.652 42.6716 194.652 42.6716C194.652 42.6716 194.666 39.5756 197.002 40.1809C199.338 40.7862 200.202 44.1501 200.202 44.1501" fill="#0C0C0C"/>
<path d="M209.259 42.1053C209.259 42.1053 220.901 44.7893 214.436 59.1401L213.381 59.072L211.24 58.9338" fill="#0C0C0C"/>
<path d="M194.316 74.0546C194.368 74.048 194.95 83.029 206.166 82.2467C213.931 81.7055 216.699 74.0417 216.877 74.0417C216.04 73.8763 215.006 73.6252 214.594 73.5388C213.698 73.3451 212.887 72.9023 212.268 72.2693C211.65 71.6362 211.253 70.843 211.13 69.9949C210.903 68.7219 211.288 62.2087 211.17 60.9206L199.251 63.3956C199.417 66.1159 200.583 72.4226 196.499 73.5388C195.817 73.7234 195.085 73.8924 194.316 74.0546Z" fill="#E98862"/>
<path opacity="0.52" d="M199.082 70.9614C199.269 70.4016 199.389 69.8245 199.441 69.2404C199.572 67.9076 199.545 66.5655 199.362 65.238C201.785 64.9338 204.067 64.0036 205.95 62.553C206.171 63.3134 207.388 66.6359 207.051 67.3572C206.415 68.7246 203.422 70.9614 199.082 70.9614Z" fill="#0C0C0C"/>
<path d="M200.865 68.3418C205.581 68.5469 211.56 66.5191 212.507 60.6465L213.361 55.3474C214.307 49.4748 211.759 44.2513 205.816 43.4222C199.872 42.593 194.662 46.7342 193.715 52.6068L193.337 54.9526C193.222 55.7602 193.167 56.5742 193.171 57.3888C193.165 59.5417 193.165 62.8164 194.388 65.1873C195.541 67.4255 197.852 68.2103 200.865 68.3418Z" fill="#E98862"/>
<path d="M199.495 62.6891C198.528 62.607 197.595 62.3147 196.771 61.8355C196.754 61.8264 196.738 61.8141 196.725 61.7991C196.712 61.7842 196.703 61.7671 196.698 61.7487C196.692 61.7304 196.691 61.7112 196.694 61.6924C196.697 61.6736 196.703 61.6554 196.714 61.6391C196.724 61.6228 196.738 61.6086 196.755 61.5974C196.771 61.5863 196.79 61.5783 196.81 61.574C196.83 61.5697 196.851 61.5693 196.871 61.5726C196.891 61.5759 196.91 61.583 196.927 61.5934C198.708 62.5847 200.44 62.6935 201.939 61.9087C201.969 61.892 202.001 61.8767 202.033 61.8631C202.07 61.8504 202.11 61.8516 202.146 61.8664C202.183 61.8813 202.211 61.9086 202.226 61.9426C202.241 61.9767 202.241 62.0147 202.226 62.0487C202.211 62.0827 202.182 62.11 202.146 62.1248C202.135 62.1297 202.115 62.1404 202.088 62.1545C201.3 62.5688 200.397 62.755 199.495 62.6891Z" fill="#0C0C0C"/>
<path d="M199.345 64.0202C199.17 64.0079 198.996 63.9818 198.826 63.9421C198.806 63.9377 198.788 63.9297 198.772 63.9188C198.756 63.9078 198.743 63.894 198.732 63.8781C198.722 63.8623 198.715 63.8447 198.712 63.8264C198.709 63.8081 198.71 63.7894 198.715 63.7714C198.72 63.7534 198.728 63.7365 198.74 63.7216C198.752 63.7066 198.767 63.694 198.784 63.6845C198.801 63.6749 198.82 63.6685 198.839 63.6657C198.859 63.6629 198.879 63.6638 198.898 63.6682C199.924 63.9036 200.486 63.5234 200.509 63.507C200.541 63.4844 200.582 63.4745 200.622 63.4796C200.662 63.4846 200.698 63.5042 200.722 63.534C200.746 63.5638 200.757 63.6013 200.751 63.6384C200.746 63.6755 200.725 63.709 200.693 63.7316C200.293 63.9698 199.817 64.0717 199.345 64.0202Z" fill="#0C0C0C"/>
<path d="M195.41 55.1703C195.819 55.1703 196.151 54.862 196.151 54.4817C196.151 54.1013 195.819 53.793 195.41 53.793C195.001 53.793 194.67 54.1013 194.67 54.4817C194.67 54.862 195.001 55.1703 195.41 55.1703Z" fill="#0C0C0C"/>
<path d="M202.294 55.5973C202.703 55.5973 203.034 55.289 203.034 54.9087C203.034 54.5283 202.703 54.22 202.294 54.22C201.885 54.22 201.554 54.5283 201.554 54.9087C201.554 55.289 201.885 55.5973 202.294 55.5973Z" fill="#0C0C0C"/>
<path d="M211.849 62.384C213.655 62.636 215.41 61.0428 215.68 59.3622C215.951 57.6817 214.636 56.5509 212.83 56.299L211.718 57.2949L210.296 62.1675L211.849 62.384Z" fill="#E98862"/>
<path d="M210.447 59.4498C210.447 59.4498 211.062 51.0475 208.424 50.1876C206.668 49.615 201.934 51.4413 197.981 50.2039C196.251 49.6625 194.506 49.8567 194.219 50.6151C194.106 50.9153 193.653 46.3345 196.931 43.319C199.54 40.9181 206.897 41.084 210.064 42.3838C218.833 45.9828 213.149 56.7131 213.149 56.7131L212.32 59.531L210.447 59.4498Z" fill="#0C0C0C"/>
<path d="M198.691 60.5852H198.679C198.097 60.5055 197.13 60.3114 197.193 59.9061C197.246 59.5703 198.808 56.081 198.987 55.6844C198.994 55.6668 199.004 55.6507 199.018 55.637C199.032 55.6234 199.049 55.6125 199.067 55.605C199.086 55.5975 199.106 55.5936 199.126 55.5934C199.146 55.5933 199.166 55.5969 199.185 55.6042C199.204 55.6114 199.221 55.6221 199.235 55.6355C199.249 55.649 199.26 55.6649 199.267 55.6824C199.274 55.7 199.278 55.7187 199.277 55.7374C199.276 55.7562 199.272 55.7747 199.263 55.7917C198.57 57.3369 197.526 59.718 197.49 59.9465C197.532 60.0502 198.119 60.2265 198.722 60.3094C198.76 60.315 198.794 60.334 198.818 60.3624C198.841 60.3908 198.852 60.4265 198.848 60.4621C198.844 60.4977 198.825 60.5304 198.796 60.5535C198.766 60.5767 198.729 60.5885 198.69 60.5865L198.691 60.5852Z" fill="#0C0C0C"/>
<path d="M197.896 52.222C197.306 51.9872 196.659 51.9051 196.023 51.9842C195.711 52.0211 195.406 52.1015 195.12 52.2225C194.837 52.3408 194.571 52.4919 194.329 52.6722C194.284 52.7041 194.255 52.7507 194.246 52.8024C194.238 52.8541 194.251 52.9068 194.283 52.9496C194.316 52.9924 194.364 53.022 194.42 53.0323C194.475 53.0425 194.532 53.0326 194.579 53.0046L194.594 52.9955C194.815 52.8516 195.054 52.7341 195.306 52.6458C195.554 52.5576 195.815 52.5049 196.08 52.4895C196.602 52.4553 197.124 52.5497 197.594 52.7634L197.614 52.7729C197.691 52.8099 197.781 52.8169 197.864 52.7922C197.947 52.7676 198.016 52.7133 198.056 52.6413C198.096 52.5694 198.103 52.4856 198.077 52.4085C198.05 52.3314 197.992 52.2673 197.915 52.2303L197.896 52.222Z" fill="#0C0C0C"/>
<path d="M202.184 53.1172C202.682 52.9658 203.213 52.9394 203.725 53.0406C203.985 53.0898 204.236 53.1755 204.468 53.2947C204.705 53.4146 204.924 53.5617 205.121 53.7325L205.134 53.743C205.177 53.7773 205.232 53.795 205.289 53.7922C205.345 53.7894 205.398 53.7665 205.437 53.7281C205.475 53.6897 205.496 53.639 205.495 53.5865C205.495 53.5339 205.472 53.4838 205.432 53.4464C205.219 53.2368 204.978 53.053 204.715 52.8994C204.45 52.7428 204.16 52.6241 203.857 52.5473C203.239 52.3874 202.585 52.3856 201.966 52.5422C201.883 52.564 201.812 52.6159 201.769 52.6864C201.726 52.757 201.716 52.8404 201.739 52.9183C201.762 52.9963 201.818 53.0623 201.894 53.102C201.97 53.1417 202.06 53.1517 202.143 53.1299L202.162 53.1243L202.184 53.1172Z" fill="#0C0C0C"/>
<path d="M203.202 44.157C203.884 42.3756 203.382 40.5821 202.081 40.1511C200.78 39.7201 199.172 40.8148 198.491 42.5962C197.809 44.3776 198.311 46.1711 199.612 46.6021C200.913 47.0331 202.52 45.9384 203.202 44.157Z" fill="#0C0C0C"/>
<path d="M121.733 216.136C121.733 216.136 120.327 222.914 113.506 223.291C106.684 223.669 108.163 228.725 108.163 228.725H134.232V216.608L121.733 216.136Z" fill="#B7F2A2"/>
<path d="M171.327 211.857C171.327 211.857 173.282 218.516 167.34 221.656C161.398 224.796 165.124 228.725 165.124 228.725L188.516 218.019L182.766 207.148L171.327 211.857Z" fill="#B7F2A2"/>
<path d="M185.815 209.976L166.089 152.083H201.845C209.028 152.083 212.022 146.417 212.022 139.735C212.022 133.054 204.961 127.197 197.779 127.197H149.521C145.14 127.197 140.228 129.689 137.824 133.096C135.42 136.503 136.07 141.782 137.811 145.521L169.4 216.894" fill="#073341"/>
<path opacity="0.8" d="M185.815 209.976L166.089 152.083H201.845C209.028 152.083 212.022 146.417 212.022 139.735C212.022 133.054 204.961 127.197 197.779 127.197H149.521C145.14 127.197 140.228 129.689 137.824 133.096C135.42 136.503 136.07 141.782 137.811 145.521L169.4 216.894" fill="#052129"/>
<path d="M135.731 222.43L168.713 152.083L212.022 152.081C222.17 151.341 226.817 146.167 226.669 139.487C226.524 132.891 222.934 126.377 215.876 126.377H157.505C152.283 126.477 148.175 131.845 146.238 136.357L118.817 218.124" fill="#073341"/>
<path d="M229.624 126.458C229.624 126.458 231.547 138.126 228.499 144.613C224.692 152.712 210.425 152.081 210.425 152.081L211.229 126.377L229.624 126.458Z" fill="#073341"/>
<path d="M144.997 126.228L175.589 120.331C176.864 120.085 178.051 119.544 179.042 118.758C180.032 117.972 180.793 116.967 181.255 115.834L193.288 86.3376C193.654 85.4524 193.829 84.5085 193.802 83.5602C193.775 82.612 193.547 81.678 193.131 80.8119C192.715 79.9459 192.119 79.1648 191.378 78.5137C190.636 77.8625 189.764 77.354 188.81 77.0174C187.857 76.6809 186.842 76.5228 185.822 76.5524C184.803 76.582 183.8 76.7986 182.871 77.1898C181.942 77.5811 181.106 78.1392 180.409 78.8321C179.713 79.525 179.171 80.3391 178.813 81.2276L168.288 107.029L141.855 112.125C141.855 112.125 144.467 126.33 144.997 126.228Z" fill="#B7F2A2"/>
<path d="M180.381 93.8281C180.734 97.6892 183.238 121.778 183.579 126.534H229.604C229.868 122.244 230.727 104.033 231.73 95.6451C232.687 87.6408 233.034 83.0732 231.932 80.5859C229.987 76.1987 225.121 74.6202 220.929 74.0922C218.37 73.77 214.521 73.5388 214.521 73.5388C214.521 73.5388 214.195 79.6722 206.422 80.0136C195.843 80.4769 196.549 73.5381 196.497 73.5381C194.783 73.5381 185.453 74.6977 183.12 76.1122C179.825 78.1102 178.851 80.8327 178.813 83.3341C178.769 86.2152 179.979 89.4491 180.381 93.8281Z" fill="#B7F2A2"/>
<path d="M182.19 113.511H182.201C182.235 113.509 182.267 113.493 182.29 113.468C182.312 113.444 182.323 113.412 182.32 113.38L181.125 100.027C181.124 100.011 181.12 99.9949 181.112 99.9804C181.104 99.966 181.094 99.9532 181.08 99.9428C181.067 99.9323 181.052 99.9245 181.035 99.9198C181.019 99.9151 181.001 99.9135 180.984 99.9153C180.967 99.9166 180.95 99.9211 180.935 99.9284C180.92 99.9357 180.906 99.9458 180.895 99.958C180.884 99.9703 180.875 99.9844 180.87 99.9997C180.865 100.015 180.863 100.031 180.864 100.047L182.058 113.399C182.061 113.43 182.076 113.458 182.1 113.479C182.125 113.5 182.157 113.511 182.19 113.511Z" fill="#0C0C0C"/>
<path d="M160.268 121.525L150.17 92.646C149.992 92.1386 149.647 91.6964 149.183 91.3827C148.719 91.069 148.16 90.8999 147.587 90.8997H106.442C106.013 90.8997 105.59 90.9941 105.208 91.1753C104.826 91.3564 104.495 91.6192 104.243 91.942C103.991 92.2648 103.825 92.6386 103.758 93.0327C103.691 93.4268 103.725 93.8301 103.858 94.2095L113.957 123.089C114.134 123.597 114.48 124.039 114.944 124.353C115.408 124.666 115.967 124.835 116.541 124.835H157.684C158.113 124.835 158.536 124.741 158.918 124.559C159.3 124.378 159.631 124.116 159.883 123.793C160.135 123.47 160.301 123.096 160.368 122.702C160.435 122.308 160.401 121.905 160.268 121.525Z" fill="#073341"/>
<path d="M160.268 121.525L150.17 92.646C149.992 92.1386 149.647 91.6964 149.183 91.3827C148.719 91.069 148.16 90.8999 147.587 90.8997H106.442C106.013 90.8997 105.59 90.9941 105.208 91.1753C104.826 91.3564 104.495 91.6192 104.243 91.942C103.991 92.2648 103.825 92.6386 103.758 93.0327C103.691 93.4268 103.725 93.8301 103.858 94.2095L113.957 123.089C114.134 123.597 114.48 124.039 114.944 124.353C115.408 124.666 115.967 124.835 116.541 124.835H157.684C158.113 124.835 158.536 124.741 158.918 124.559C159.3 124.378 159.631 124.116 159.883 123.793C160.135 123.47 160.301 123.096 160.368 122.702C160.435 122.308 160.401 121.905 160.268 121.525Z" fill="#073341"/>
<path d="M179.572 122.493H152.03C151.344 122.493 150.788 123.011 150.788 123.649V123.679C150.788 124.317 151.344 124.835 152.03 124.835H179.572C180.258 124.835 180.815 124.317 180.815 123.679V123.649C180.815 123.011 180.258 122.493 179.572 122.493Z" fill="#073341"/>
<path d="M179.572 122.493H152.03C151.344 122.493 150.788 123.011 150.788 123.649V123.679C150.788 124.317 151.344 124.835 152.03 124.835H179.572C180.258 124.835 180.815 124.317 180.815 123.679V123.649C180.815 123.011 180.258 122.493 179.572 122.493Z" fill="#073341"/>
<path d="M132.063 113.291C134.446 113.291 136.378 111.493 136.378 109.276C136.378 107.059 134.446 105.262 132.063 105.262C129.68 105.262 127.748 107.059 127.748 109.276C127.748 111.493 129.68 113.291 132.063 113.291Z" fill="white"/>
<path d="M162.57 114.76L169.444 112.519L168.457 112.455C168.139 112.429 167.844 112.291 167.631 112.07C167.417 111.849 167.303 111.56 167.309 111.263C167.318 111.11 167.361 110.96 167.434 110.823C167.508 110.686 167.611 110.564 167.736 110.464C167.862 110.365 168.008 110.291 168.166 110.246C168.324 110.201 168.49 110.186 168.653 110.203L180.815 111.405L180.499 115.041C180.401 116.17 179.942 117.246 179.182 118.132C178.422 119.017 177.396 119.671 176.234 120.01L170.967 121.536C170.695 121.62 170.4 121.614 170.132 121.52C169.864 121.425 169.64 121.247 169.497 121.016C169.372 120.804 169.324 120.562 169.358 120.323C169.393 120.084 169.508 119.862 169.688 119.689C169.672 119.678 169.659 119.663 169.651 119.646C169.645 119.63 169.643 119.612 169.646 119.595C169.648 119.578 169.655 119.562 169.666 119.548L168.696 119.832C168.394 119.926 168.064 119.91 167.773 119.787C167.482 119.664 167.253 119.443 167.131 119.168C167.031 118.919 167.029 118.646 167.125 118.395C167.221 118.145 167.408 117.934 167.655 117.8C167.644 117.794 167.633 117.787 167.625 117.778L167.226 117.894C166.954 117.979 166.658 117.974 166.39 117.879C166.121 117.784 165.896 117.606 165.753 117.374C165.602 117.118 165.564 116.818 165.646 116.536C165.728 116.254 165.924 116.013 166.194 115.862C166.191 115.855 166.19 115.847 166.19 115.839L163.327 116.773C163.185 116.819 163.035 116.839 162.885 116.831C162.735 116.823 162.588 116.788 162.452 116.728C162.178 116.605 161.968 116.387 161.868 116.12C161.767 115.853 161.785 115.56 161.917 115.306C162.048 115.051 162.283 114.856 162.57 114.762L162.57 114.76Z" fill="#E98862"/>
<path opacity="0.2" d="M166.304 115.941C166.317 115.941 166.33 115.939 166.343 115.935L169.112 114.998C169.126 114.994 169.139 114.986 169.15 114.977C169.161 114.967 169.17 114.956 169.176 114.943C169.182 114.931 169.186 114.917 169.186 114.903C169.187 114.889 169.185 114.875 169.179 114.862C169.174 114.849 169.166 114.837 169.156 114.827C169.146 114.816 169.134 114.808 169.12 114.802C169.107 114.796 169.092 114.793 169.077 114.792C169.062 114.792 169.047 114.794 169.033 114.799L166.264 115.736C166.239 115.744 166.217 115.761 166.204 115.782C166.191 115.804 166.186 115.829 166.19 115.854C166.195 115.878 166.209 115.901 166.23 115.917C166.25 115.933 166.276 115.941 166.303 115.941H166.304Z" fill="#0A0A0A"/>
<path opacity="0.2" d="M167.703 117.813C167.716 117.813 167.729 117.811 167.741 117.807L169.923 117.087C169.938 117.082 169.951 117.075 169.963 117.066C169.974 117.057 169.983 117.045 169.99 117.033C169.997 117.02 170.001 117.006 170.002 116.992C170.003 116.978 170 116.964 169.995 116.95C169.99 116.937 169.982 116.925 169.972 116.914C169.962 116.904 169.95 116.895 169.936 116.89C169.922 116.884 169.907 116.88 169.892 116.88C169.877 116.879 169.862 116.882 169.847 116.887L167.665 117.607C167.639 117.616 167.618 117.632 167.605 117.654C167.591 117.675 167.586 117.701 167.591 117.725C167.595 117.75 167.609 117.772 167.629 117.788C167.65 117.804 167.676 117.813 167.703 117.813Z" fill="#0A0A0A"/>
<path opacity="0.2" d="M169.758 119.716C169.772 119.715 169.786 119.713 169.799 119.708L170.821 119.346C170.849 119.336 170.872 119.316 170.884 119.29C170.897 119.264 170.898 119.235 170.887 119.209C170.876 119.182 170.854 119.161 170.827 119.15C170.799 119.138 170.768 119.138 170.739 119.148L169.717 119.51C169.692 119.519 169.672 119.536 169.659 119.558C169.646 119.579 169.641 119.604 169.646 119.629C169.651 119.653 169.665 119.675 169.685 119.691C169.705 119.707 169.731 119.716 169.758 119.716H169.758Z" fill="#0A0A0A"/>
<path d="M175.432 109.254L204.268 109.235L215.177 84.4798L231.45 90.8448L217.839 120.226L217.706 120.519C217.04 121.947 215.919 123.15 214.493 123.965C213.068 124.781 211.408 125.169 209.737 125.077L174.996 123.168L175.432 109.254Z" fill="#B7F2A2"/>
<path d="M210.215 125.212C211.832 125.209 213.413 124.769 214.764 123.944C216.116 123.119 217.18 121.945 217.827 120.567L217.96 120.274L229.557 95.2398L229.316 95.1423L217.585 120.472C216.927 121.874 215.823 123.056 214.421 123.858C213.019 124.659 211.387 125.042 209.745 124.956L175.131 123.053L175.559 109.376L204.356 109.358L212.744 90.3239L212.501 90.2315L204.18 109.115L175.305 109.133L174.861 123.283L174.988 123.29L209.73 125.199C209.891 125.207 210.055 125.212 210.215 125.212Z" fill="#0C0C0C"/>
<path d="M63.1311 127.173L52.0798 228.952L52.6015 229.001L63.6527 127.222L63.1311 127.173Z" fill="#494949"/>
<path d="M242.289 127.172L241.768 127.221L252.826 228.999L253.348 228.95L242.289 127.172Z" fill="#494949"/>
<path d="M196.598 127.172L196.077 127.221L207.136 228.999L207.657 228.95L196.598 127.172Z" fill="#494949"/>
<path d="M17.4402 127.173L6.38892 228.951L6.91055 229L17.9618 127.222L17.4402 127.173Z" fill="#494949"/>
<path d="M7.47411 129.195L251.53 129.195C252.717 129.195 253.678 128.3 253.678 127.197C253.678 126.093 252.717 125.199 251.53 125.199L7.47411 125.199C6.2878 125.199 5.3261 126.093 5.3261 127.197C5.3261 128.3 6.2878 129.195 7.47411 129.195Z" fill="#073341"/>
<path opacity="0.8" d="M7.47411 129.195L251.53 129.195C252.717 129.195 253.678 128.3 253.678 127.197C253.678 126.093 252.717 125.199 251.53 125.199L7.47411 125.199C6.2878 125.199 5.3261 126.093 5.3261 127.197C5.3261 128.3 6.2878 129.195 7.47411 129.195Z" fill="white"/>
<path d="M5.06372 127.197C5.06414 126.602 5.3182 126.032 5.7701 125.612C6.222 125.191 6.83478 124.955 7.47387 124.955H251.529C252.168 124.955 252.781 125.191 253.233 125.611C253.685 126.032 253.939 126.602 253.939 127.197C253.939 127.791 253.685 128.362 253.233 128.782C252.781 129.203 252.168 129.439 251.529 129.439H7.47387C6.83478 129.438 6.222 129.202 5.7701 128.782C5.3182 128.361 5.06414 127.791 5.06372 127.197ZM7.47387 125.442C6.97371 125.442 6.49403 125.627 6.14036 125.956C5.7867 126.285 5.58801 126.731 5.58801 127.197C5.58801 127.662 5.7867 128.108 6.14036 128.437C6.49403 128.766 6.97371 128.951 7.47387 128.951H251.529C252.029 128.951 252.509 128.766 252.863 128.437C253.216 128.108 253.415 127.662 253.415 127.197C253.415 126.731 253.216 126.285 252.863 125.956C252.509 125.627 252.029 125.442 251.529 125.442H7.47387Z" fill="#073341"/>
<path d="M7.47426 129.195L204.093 129.195C205.279 129.195 206.241 128.3 206.241 127.197C206.241 126.093 205.279 125.199 204.093 125.199L7.47426 125.199C6.28795 125.199 5.32625 126.093 5.32625 127.197C5.32625 128.3 6.28795 129.195 7.47426 129.195Z" fill="white"/>
<path d="M5.06372 127.197C5.06414 126.602 5.3182 126.032 5.7701 125.612C6.222 125.191 6.83478 124.955 7.47387 124.955H204.093C204.732 124.955 205.345 125.191 205.797 125.611C206.249 126.032 206.503 126.602 206.503 127.197C206.503 127.791 206.249 128.362 205.797 128.782C205.345 129.203 204.732 129.439 204.093 129.439H7.47387C6.83478 129.438 6.222 129.202 5.7701 128.782C5.3182 128.361 5.06414 127.791 5.06372 127.197ZM7.47387 125.442C6.97371 125.442 6.49403 125.627 6.14036 125.956C5.7867 126.285 5.58801 126.731 5.58801 127.197C5.58801 127.662 5.7867 128.108 6.14036 128.437C6.49403 128.766 6.97371 128.951 7.47387 128.951H204.093C204.593 128.951 205.072 128.766 205.426 128.437C205.78 128.108 205.978 127.662 205.978 127.197C205.978 126.731 205.78 126.285 205.426 125.956C205.072 125.627 204.593 125.442 204.093 125.442H7.47387Z" fill="#073341"/>
<path d="M35.6601 209.435C35.6601 209.435 30.6959 216.232 35.0958 221.125C39.4956 226.019 34.5096 228.495 34.5096 228.495L16.5627 210.788L26.0717 202.446L35.6601 209.435Z" fill="#B7F2A2"/>
<path d="M61.7122 100.151C61.7122 100.151 78.4692 153.769 74.5198 161.606C70.6369 169.313 35.1982 214.329 35.1982 214.329L22.4536 203.997L53.9735 156.444C53.9735 156.444 44.643 128.983 39.5986 114.581C36.5577 105.899 31.4412 106.176 30.9552 97.0559L61.7122 100.151Z" fill="#073341"/>
<path d="M43.158 160.594L47.3032 156.203L46.2243 181.981L41.6042 186.066L43.158 160.594Z" fill="#0A0A0A"/>
<path d="M42.4715 122.835C42.4715 122.835 40.4868 111.875 42.6094 114.222C49.5114 121.855 50.1984 145.344 50.1984 145.344L42.4715 122.835Z" fill="#0A0A0A"/>
<path d="M54.0667 215.567C54.0667 215.567 55.4773 222.368 62.3242 222.747C69.1712 223.126 67.6853 228.2 67.6853 228.2H41.5237V216.041L54.0667 215.567Z" fill="#B7F2A2"/>
<path d="M15.0075 98.8079C15.0075 98.8079 14.8917 98.3067 14.824 101.237C14.7756 103.306 13.8722 110.63 16.9954 122.183C22.8459 143.826 40.3702 219.908 40.3702 219.908L57.5602 219.773L41.3493 98.1429L15.0075 98.8079Z" fill="#0E3A48"/>
<path d="M14.7414 98.8956L14.6853 98.8985C14.6853 98.8985 14.7257 97.8912 14.7414 98.8956Z" fill="#333333"/>
<path d="M108.84 50.9531C108.736 50.7625 108.572 50.6065 108.369 50.5066C108.166 50.4067 107.935 50.3679 107.707 50.3954C107.709 50.3766 107.705 50.3576 107.695 50.3412C107.684 50.3286 107.67 50.3187 107.654 50.3127C107.638 50.3067 107.621 50.3046 107.604 50.3069L108.372 49.7947C108.601 49.6483 108.766 49.4297 108.836 49.179C108.906 48.9284 108.876 48.6627 108.752 48.431C108.621 48.2057 108.405 48.0337 108.146 47.9484C107.886 47.863 107.602 47.8704 107.348 47.9691C107.35 47.9591 107.342 47.9494 107.341 47.9391L107.655 47.7287C107.871 47.59 108.029 47.3862 108.102 47.1518C108.174 46.9173 108.158 46.6667 108.055 46.4423C107.987 46.3028 107.887 46.1791 107.762 46.08C107.636 45.9809 107.489 45.9089 107.33 45.8693C107.171 45.8296 107.005 45.8233 106.843 45.8506C106.681 45.878 106.528 45.9385 106.394 46.0277L105.666 46.5132C105.664 46.5091 105.666 46.5045 105.663 46.5008C105.661 46.4971 105.653 46.4957 105.649 46.4915C105.816 46.3166 105.914 46.094 105.927 45.8602C105.941 45.6265 105.868 45.3955 105.722 45.2051C105.378 44.6906 104.584 44.7957 104.114 45.1095L99.8282 47.8635L100.594 46.6637C100.748 46.4328 100.803 46.1561 100.746 45.8895C100.689 45.6228 100.526 45.3861 100.289 45.2271C100.164 45.149 100.023 45.0955 99.8743 45.0698C99.726 45.0441 99.5735 45.0469 99.4263 45.0779C99.2791 45.1088 99.1403 45.1674 99.0182 45.2499C98.8962 45.3325 98.7935 45.4373 98.7164 45.558L94.536 52.1076C94.0453 52.876 93.8961 53.7921 94.1199 54.6613C94.3438 55.5305 94.9231 56.2842 95.7348 56.7623C96.6762 57.3169 97.7742 57.5973 98.888 57.5675C100.002 57.5377 101.081 57.1992 101.986 56.5953L108.458 52.28C108.673 52.1311 108.828 51.9191 108.897 51.6783C108.966 51.4374 108.946 51.1819 108.84 50.9531Z" fill="#E98862"/>
<g opacity="0.25">
<path opacity="0.25" d="M101.426 49.2338C101.442 49.254 101.466 49.2676 101.492 49.2718C101.519 49.276 101.546 49.2704 101.568 49.2563L105.64 46.6325C105.651 46.6253 105.66 46.6162 105.667 46.6057C105.675 46.5952 105.68 46.5834 105.682 46.5711C105.684 46.5587 105.684 46.5461 105.681 46.5338C105.679 46.5216 105.673 46.51 105.665 46.4997C105.658 46.4894 105.648 46.4806 105.637 46.4738C105.625 46.467 105.613 46.4624 105.599 46.4602C105.586 46.4579 105.573 46.4582 105.559 46.4608C105.546 46.4635 105.534 46.4685 105.523 46.4757L101.451 49.0995C101.44 49.1066 101.43 49.1156 101.423 49.1261C101.416 49.1367 101.411 49.1484 101.408 49.1607C101.406 49.1731 101.406 49.1857 101.409 49.1979C101.412 49.2102 101.417 49.2218 101.425 49.2321L101.426 49.2338Z" fill="#0C0C0C"/>
</g>
<g opacity="0.25">
<path opacity="0.25" d="M102.621 50.9365C102.637 50.9566 102.66 50.9702 102.687 50.9743C102.713 50.9785 102.74 50.9729 102.762 50.9587L107.306 48.0306C107.317 48.0235 107.327 48.0144 107.334 48.0039C107.342 47.9934 107.347 47.9816 107.349 47.9693C107.351 47.957 107.351 47.9443 107.348 47.9321C107.346 47.9198 107.34 47.9082 107.333 47.8979C107.316 47.8778 107.293 47.8642 107.266 47.8596C107.24 47.8551 107.213 47.8601 107.19 47.8735L102.646 50.8017C102.635 50.8088 102.625 50.8178 102.618 50.8284C102.61 50.8389 102.605 50.8506 102.603 50.8629C102.601 50.8753 102.601 50.8879 102.604 50.9002C102.606 50.9124 102.612 50.924 102.619 50.9343L102.621 50.9365Z" fill="#0C0C0C"/>
</g>
<g opacity="0.25">
<path opacity="0.25" d="M103.903 52.7875C103.919 52.8076 103.942 52.8211 103.969 52.8253C103.995 52.8294 104.022 52.8238 104.044 52.8097L107.669 50.4741C107.692 50.4597 107.707 50.4376 107.712 50.4127C107.717 50.3878 107.711 50.3622 107.695 50.3414C107.68 50.3206 107.656 50.3064 107.629 50.3018C107.602 50.2973 107.575 50.3029 107.552 50.3173L103.927 52.6529C103.916 52.66 103.907 52.6691 103.9 52.6796C103.892 52.6901 103.887 52.7018 103.885 52.7142C103.882 52.7265 103.883 52.7391 103.885 52.7514C103.888 52.7636 103.894 52.7752 103.901 52.7855L103.903 52.7875Z" fill="#0C0C0C"/>
</g>
<path d="M92.068 50.6156L79.7852 70.0764L64.7977 51.7886L52.3501 62.2277L73.6068 87.8369L73.7462 88.0191C74.597 89.1032 75.7304 89.9679 77.0398 90.5318C78.3491 91.0957 79.7912 91.3402 81.2302 91.2422C82.6692 91.1442 84.0577 90.707 85.2649 89.9718C86.472 89.2365 87.458 88.2275 88.13 87.0397L105.596 57.6147L92.068 50.6156Z" fill="#B7F2A2"/>
<path d="M78.5809 72.4165C78.5541 72.4165 78.5279 72.4102 78.5046 72.398C78.4813 72.3859 78.4617 72.3684 78.4477 72.3472C78.4338 72.326 78.4259 72.3018 78.4249 72.277C78.4239 72.2521 78.4298 72.2275 78.4419 72.2053L79.646 70.0105C79.6675 69.9811 79.6999 69.96 79.737 69.9512C79.7741 69.9424 79.8134 69.9464 79.8475 69.9627C79.8816 69.9789 79.9082 70.0061 79.9223 70.0393C79.9363 70.0724 79.9369 70.1092 79.9238 70.1427L78.7198 72.3375C78.7066 72.3612 78.6867 72.3811 78.6622 72.395C78.6377 72.409 78.6096 72.4164 78.5809 72.4165Z" fill="#0C0C0C"/>
<path d="M63.9331 69.9654L63.5581 76.112L63.8696 76.1284L64.2445 69.9819L63.9331 69.9654Z" fill="#0C0C0C"/>
<path d="M24.3552 25.4814C24.3552 25.4814 23.7785 32.3232 22.0929 34.7894C17.2367 41.8897 15.7548 49.9201 20.4771 54.1746C25.1993 58.4292 55.6465 58.8155 58.0734 49.1726C60.1165 41.0544 55.96 40.1346 55.0294 33.4094C54.6084 30.3664 53.4256 23.9824 53.4256 23.9824" fill="#0A0A0A"/>
<path d="M50.322 47.6314C50.2696 47.6248 49.6861 56.6287 38.4427 55.8437C30.6589 55.3013 27.8833 47.6184 27.7051 47.6184C28.5439 47.4526 29.9574 47.2114 30.3302 47.0263C31.556 46.4135 33.0725 45.776 33.4675 43.5617C33.6953 42.2855 33.3089 35.7564 33.4279 34.4653L45.3769 36.9462C45.21 39.6734 44.0416 45.9957 48.1371 47.1156C48.8173 47.2995 49.5513 47.4697 50.322 47.6314Z" fill="#E98862"/>
<path opacity="0.52" d="M45.5436 44.5306C45.3566 43.9694 45.2361 43.3909 45.1842 42.8054C45.0531 41.4693 45.0795 40.1239 45.2628 38.7931C42.8343 38.488 40.5465 37.5555 38.6592 36.1015C38.4374 36.8638 37.2174 40.1943 37.555 40.9189C38.1944 42.2882 41.1938 44.5306 45.5436 44.5306Z" fill="#0C0C0C"/>
<path d="M43.9598 41.6968C39.2444 42.0699 33.1716 40.2516 31.9817 34.4024L30.9069 29.1248C29.7171 23.2756 32.0549 17.9527 37.9746 16.9104C43.8946 15.8681 49.284 19.8307 50.4738 25.6799L50.9491 28.0165C51.4063 30.2608 52.3736 41.0308 43.9598 41.6968Z" fill="#E98862"/>
<path d="M49.2631 28.2713C49.673 28.2713 50.0053 27.9622 50.0053 27.5809C50.0053 27.1996 49.673 26.8905 49.2631 26.8905C48.8533 26.8905 48.521 27.1996 48.521 27.5809C48.521 27.9622 48.8533 28.2713 49.2631 28.2713Z" fill="#0C0C0C"/>
<path d="M41.6603 29.2158C42.0702 29.2158 42.4025 28.9067 42.4025 28.5254C42.4025 28.1441 42.0702 27.835 41.6603 27.835C41.2505 27.835 40.9182 28.1441 40.9182 28.5254C40.9182 28.9067 41.2505 29.2158 41.6603 29.2158Z" fill="#0C0C0C"/>
<path d="M45.8326 33.5867C45.8365 33.5864 45.8403 33.5859 45.8442 33.5852C46.0839 33.5413 46.3209 33.4851 46.554 33.4169C46.9022 33.3128 47.358 33.1404 47.2988 32.848C47.2312 32.5146 45.518 29.0924 45.323 28.7022C45.3146 28.6854 45.3026 28.6703 45.2879 28.6577C45.2732 28.6452 45.2559 28.6355 45.2372 28.6291C45.2184 28.6228 45.1985 28.62 45.1785 28.6208C45.1586 28.6216 45.139 28.6261 45.1209 28.6339C45.1028 28.6418 45.0866 28.6529 45.0731 28.6666C45.0596 28.6803 45.0492 28.6963 45.0423 28.7138C45.0355 28.7313 45.0325 28.7498 45.0334 28.7684C45.0342 28.7869 45.039 28.8051 45.0475 28.822C45.7781 30.2796 46.9543 32.6763 46.9999 32.9007C46.9606 33.0046 46.3829 33.2023 45.7875 33.3072C45.7491 33.3142 45.7151 33.3347 45.6925 33.3645C45.67 33.3943 45.6606 33.431 45.6664 33.467C45.6723 33.503 45.6928 33.5355 45.7237 33.5578C45.7547 33.5801 45.7937 33.5905 45.8326 33.5867Z" fill="#0C0C0C"/>
<path d="M44.956 36.112C45.9216 35.9956 46.8442 35.6698 47.6496 35.1609C47.6829 35.1402 47.7062 35.1082 47.7143 35.0716C47.7224 35.0351 47.7146 34.9971 47.6928 34.9659C47.6709 34.9347 47.6367 34.9127 47.5975 34.9048C47.5583 34.897 47.5174 34.9038 47.4836 34.9238C45.7409 35.98 44.0092 36.151 42.4767 35.4179C42.4457 35.4023 42.4138 35.3882 42.3813 35.3757C42.3434 35.3633 42.3019 35.3653 42.2656 35.3813C42.2294 35.3973 42.2014 35.426 42.1877 35.4611C42.1741 35.4962 42.176 35.5349 42.1929 35.5687C42.2098 35.6026 42.2404 35.6288 42.278 35.6418C42.29 35.6464 42.31 35.6564 42.3378 35.6698C43.1438 36.0562 44.0554 36.2102 44.956 36.112Z" fill="#0C0C0C"/>
<path d="M26.1722 30.9641L31.479 30.0591C35.4979 28.5471 36.7135 22.0736 36.7135 22.0736C36.7135 22.0736 41.5951 26.4998 53.4257 23.9824C53.4257 23.9824 51.0535 8.63396 33.5759 13.0968C27.9398 14.5356 23.8955 19.819 24.3993 26.88C24.7524 31.8284 26.1722 30.9641 26.1722 30.9641Z" fill="#0A0A0A"/>
<path d="M32.7117 36.1198C30.9126 36.4368 29.0902 34.9028 28.7497 33.2292C28.4091 31.5555 29.6798 30.3759 31.4788 30.0589L32.6338 31.017L34.2591 35.8471L32.7117 36.1198Z" fill="#E98862"/>
<path d="M46.407 25.905C46.9322 25.5897 47.5388 25.4117 48.1634 25.3895C48.4707 25.3768 48.7783 25.4071 49.0759 25.4792C49.3706 25.5498 49.6547 25.6545 49.9213 25.7909C49.9577 25.8088 49.9852 25.8391 49.998 25.8754C50.0109 25.9117 50.0081 25.9513 49.9902 25.9858C49.9724 26.0202 49.9408 26.0469 49.9023 26.0602C49.8637 26.0734 49.8211 26.0723 49.7834 26.057L49.7719 26.0521C49.5254 25.9395 49.2647 25.8561 48.996 25.8038C48.7303 25.7509 48.4575 25.7357 48.187 25.7587C47.65 25.8005 47.1345 25.9736 46.6928 26.2606L46.6786 26.2703C46.6273 26.302 46.5648 26.3139 46.5042 26.3037C46.4436 26.2934 46.3896 26.2617 46.3535 26.2153C46.3175 26.1689 46.3021 26.1112 46.3107 26.0545C46.3192 25.9978 46.351 25.9463 46.3994 25.9109L46.407 25.905Z" fill="#0C0C0C"/>
<path d="M41.6743 26.9417C41.1512 26.8225 40.6035 26.8342 40.0868 26.9756C39.8256 27.0452 39.5771 27.151 39.3499 27.2895C39.1195 27.4286 38.9088 27.5941 38.7228 27.7821L38.7144 27.7899C38.6854 27.817 38.6461 27.8326 38.6049 27.8333C38.5637 27.834 38.5238 27.8198 38.4936 27.7936C38.4635 27.7675 38.4455 27.7315 38.4433 27.6932C38.4412 27.6549 38.4551 27.6174 38.4822 27.5885C38.6777 27.3716 38.9019 27.1786 39.1493 27.0139C39.3989 26.8467 39.6739 26.7151 39.9654 26.6237C40.5562 26.4348 41.1907 26.397 41.8025 26.5145C41.8644 26.5269 41.9184 26.5616 41.9528 26.6111C41.9871 26.6605 41.9989 26.7207 41.9856 26.7782C41.9723 26.8358 41.9349 26.8861 41.8818 26.918C41.8286 26.95 41.764 26.9609 41.7021 26.9486L41.6924 26.9464L41.6743 26.9417Z" fill="#0C0C0C"/>
<path d="M45.1612 37.44C45.3362 37.4212 45.5091 37.3886 45.6782 37.3425C45.6974 37.3374 45.7153 37.3288 45.7309 37.3172C45.7465 37.3056 45.7595 37.2913 45.7692 37.275C45.7789 37.2587 45.785 37.2409 45.7872 37.2224C45.7895 37.204 45.7878 37.1853 45.7822 37.1674C45.7767 37.1496 45.7675 37.1329 45.755 37.1184C45.7426 37.1038 45.7272 37.0917 45.7097 37.0827C45.6922 37.0738 45.673 37.068 45.6531 37.066C45.6333 37.0639 45.6132 37.0655 45.594 37.0706C44.5766 37.343 43.9981 36.9821 43.9737 36.9665C43.9407 36.9449 43.8998 36.9364 43.86 36.9429C43.8203 36.9494 43.7849 36.9703 43.7618 37.001C43.7386 37.0317 43.7295 37.0697 43.7364 37.1067C43.7434 37.1437 43.7658 37.1766 43.7989 37.1981C44.2093 37.4228 44.6907 37.5082 45.1612 37.44Z" fill="#0C0C0C"/>
<path d="M31.4904 29.996L31.438 29.8594C38.1617 27.6138 36.5175 21.4756 36.5002 21.4139L36.651 21.3771C36.6685 21.4405 38.3515 27.7055 31.4904 29.996Z" fill="#0C0C0C"/>
<path opacity="0.1" d="M41.0614 34.0177C41.8377 33.94 42.4173 33.4476 42.356 32.9178C42.2948 32.388 41.6158 32.0216 40.8395 32.0993C40.0632 32.177 39.4835 32.6694 39.5448 33.1992C39.606 33.7289 40.285 34.0954 41.0614 34.0177Z" fill="#0C0C0C"/>
<path opacity="0.1" d="M49.2783 31.991C49.3412 32.52 50.0199 32.886 50.7961 32.8092C50.9303 32.7958 51.0626 32.7694 51.1909 32.7305C51.2347 32.101 51.2433 31.4953 51.2315 30.9341C51.0169 30.8819 50.7937 30.8673 50.5733 30.8912C49.7968 30.9678 49.2175 31.4592 49.2783 31.991Z" fill="#0C0C0C"/>
<path d="M64.2916 67.4543C63.9374 71.3247 62.2146 95.4727 61.8743 100.24H14.8387C14.5737 95.9404 13.4916 77.1381 12.4863 68.7295C11.5268 60.7062 9.64412 56.6884 11.024 54.3168C13.2785 50.4393 19.4412 48.1996 23.6428 47.6704C26.2087 47.3472 30.0677 47.1156 30.0677 47.1156C30.0677 47.1156 30.3946 53.2647 38.1855 53.6069C48.7915 54.0724 48.0832 47.1156 48.1359 47.1156C49.854 47.1156 59.6702 48.1274 62.0707 49.4516C68.6143 53.0553 65.0434 59.251 64.2916 67.4543Z" fill="#B7F2A2"/>
<path d="M93.5363 70.1574L89.1934 89.7945C89.1051 90.1932 88.8726 90.5517 88.5347 90.8103C88.1967 91.0689 87.7737 91.2119 87.3361 91.2155L57.4314 91.4523C57.1461 91.4544 56.8639 91.3972 56.6055 91.2849C56.3471 91.1725 56.1189 91.0078 55.9378 90.8028C55.7566 90.5978 55.6269 90.3578 55.5583 90.1002C55.4898 89.8426 55.4839 89.574 55.5413 89.314L59.8845 69.6769C59.9728 69.2782 60.2053 68.9197 60.5432 68.6611C60.8812 68.4025 61.3042 68.2595 61.7418 68.2559L91.6465 68.0191C91.9318 68.017 92.2139 68.0742 92.4723 68.1866C92.7307 68.299 92.9588 68.4637 93.14 68.6687C93.3211 68.8736 93.4507 69.1137 93.5193 69.3713C93.5879 69.6288 93.5937 69.8974 93.5363 70.1574Z" fill="#073341"/>
<path d="M65.6508 84.1059C65.667 84.3645 65.582 84.6198 65.4117 84.8247C65.2413 85.0296 64.997 85.1702 64.7239 85.2207L63.8035 85.4094C63.8199 85.4144 63.8348 85.4232 63.8467 85.4348C63.8587 85.4465 63.8673 85.4607 63.8719 85.4762C63.8742 85.4944 63.8699 85.5128 63.8596 85.5284C64.0809 85.5863 64.2773 85.7068 64.4216 85.8733C64.5659 86.0397 64.6508 86.2439 64.6646 86.4573C64.6659 86.7061 64.577 86.9481 64.4122 87.1441C64.2474 87.34 64.0164 87.4786 63.7566 87.5374L55.9827 89.1428C55.5853 89.2259 55.1792 89.2678 54.7719 89.2677C53.8645 89.2676 52.9709 89.0622 52.1679 88.6692C51.3649 88.2762 50.6767 87.7074 50.1626 87.0119C49.6175 86.276 49.4025 85.3714 49.5633 84.4903C49.7242 83.6092 50.2483 82.8213 51.024 82.2942L57.6368 77.7973C57.7823 77.6981 57.9515 77.6333 58.1299 77.6085L57.5212 80.3579L57.6835 80.323L57.7178 80.3172L62.7893 79.3561C63.3539 79.24 64.128 79.4317 64.2279 80.0297C64.2814 80.2586 64.2501 80.4977 64.139 80.708C64.0279 80.9184 63.8436 81.0875 63.6161 81.188C63.6192 81.191 63.6255 81.1939 63.6255 81.1997C63.6255 81.2056 63.6224 81.2085 63.6224 81.2141L64.4992 81.0342C64.6597 81.0011 64.826 81.0015 64.9862 81.0355C65.1465 81.0694 65.2966 81.136 65.4259 81.2304C65.5551 81.3248 65.6603 81.4447 65.7337 81.5815C65.8071 81.7183 65.8471 81.8685 65.8506 82.0213C65.8505 82.2654 65.7598 82.5019 65.5937 82.6908C65.4276 82.8797 65.1965 83.0093 64.9394 83.0578L64.5616 83.1361C64.5587 83.1478 64.5616 83.1605 64.5556 83.168C64.8307 83.1699 65.0953 83.267 65.2977 83.4404C65.5002 83.6138 65.626 83.851 65.6508 84.1059Z" fill="#E98862"/>
<g opacity="0.25">
<path opacity="0.25" d="M58.5739 82.1672C58.5797 82.1916 58.5956 82.213 58.6181 82.2267C58.6407 82.2404 58.6681 82.2453 58.6945 82.2403L63.5468 81.3136C63.5734 81.3085 63.5967 81.2938 63.6117 81.2727C63.6266 81.2515 63.6319 81.2257 63.6264 81.201C63.621 81.1762 63.6051 81.1545 63.5824 81.1406C63.5597 81.1267 63.532 81.1217 63.5053 81.1268L58.6531 82.0535C58.6266 82.0588 58.6035 82.0736 58.5888 82.0947C58.5741 82.1157 58.5689 82.1414 58.5744 82.166L58.5739 82.1672Z" fill="#0C0C0C"/>
</g>
<g opacity="0.25">
<path opacity="0.25" d="M58.9538 84.1693C58.9598 84.1936 58.9758 84.2147 58.9983 84.2282C59.0209 84.2416 59.0482 84.2463 59.0744 84.2413L64.4895 83.2083C64.5159 83.2029 64.539 83.1881 64.5538 83.167C64.5685 83.1459 64.5737 83.1202 64.5681 83.0956C64.5619 83.0713 64.5458 83.0501 64.5233 83.0365C64.5007 83.0229 64.4735 83.0179 64.447 83.0224L59.0319 84.0554C59.0055 84.0608 58.9825 84.0757 58.9677 84.0968C58.953 84.1178 58.9478 84.1435 58.9533 84.1681L58.9538 84.1693Z" fill="#0C0C0C"/>
</g>
<g opacity="0.25">
<path opacity="0.25" d="M59.3517 86.34C59.3575 86.3645 59.3733 86.3859 59.3959 86.3996C59.4185 86.4133 59.4459 86.4182 59.4723 86.4132L63.7917 85.5892C63.805 85.5868 63.8177 85.582 63.829 85.575C63.8404 85.5681 63.8501 85.5591 63.8576 85.5486C63.8652 85.5381 63.8704 85.5263 63.8731 85.5139C63.8757 85.5015 63.8756 85.4887 63.8729 85.4764C63.8702 85.464 63.8648 85.4522 63.8572 85.4418C63.8495 85.4314 63.8397 85.4224 63.8283 85.4155C63.8169 85.4087 63.8042 85.404 63.7908 85.4017C63.7775 85.3994 63.7638 85.3997 63.7505 85.4024L59.4309 86.2264C59.4045 86.2317 59.3814 86.2466 59.3666 86.2677C59.3519 86.2888 59.3467 86.3144 59.3523 86.3391L59.3517 86.34Z" fill="#0C0C0C"/>
</g>
<path d="M55.5015 92.0044L13.3263 99.0946C12.0103 99.2278 10.6789 99.0756 9.43677 98.6497C8.1946 98.2239 7.07539 97.5361 6.16696 96.6402C5.25853 95.7444 4.5856 94.6649 4.20095 93.4865C3.8163 92.3081 3.73041 91.0628 3.95 89.8483L9.85452 57.1998C10.2317 55.1152 11.4835 53.2553 13.3347 52.0293C14.2513 51.4223 15.2875 50.9891 16.3841 50.7546C17.4806 50.5201 18.6161 50.4888 19.7257 50.6625C20.8352 50.8363 21.8971 51.2116 22.8508 51.7671C23.8044 52.3226 24.6311 53.0474 25.2836 53.9001C25.9361 54.7529 26.4017 55.7168 26.6538 56.7369C26.9059 57.757 26.9395 58.8134 26.7528 59.8456L22.7279 82.3196L53.6484 78.7072L55.5015 92.0044Z" fill="#B7F2A2"/>
<path d="M13.3261 99.2398C13.2887 99.2372 13.2535 99.2224 13.2269 99.1979C13.2003 99.1734 13.1839 99.1409 13.1807 99.1062C13.1776 99.0715 13.1878 99.0368 13.2097 99.0085C13.2315 98.9802 13.2635 98.9601 13.2998 98.9518L55.3287 91.8861L53.5137 78.8694L22.7462 82.4637C22.7222 82.4666 22.6978 82.4642 22.675 82.4566C22.6523 82.4491 22.6317 82.4367 22.6151 82.4203C22.5982 82.4041 22.5857 82.3843 22.5785 82.3627C22.5713 82.3411 22.5696 82.3183 22.5737 82.296L25.133 67.9321C25.1361 67.9132 25.1433 67.895 25.1541 67.8787C25.1649 67.8625 25.179 67.8483 25.1958 67.8372C25.2125 67.8261 25.2314 67.8182 25.2515 67.814C25.2716 67.8098 25.2923 67.8094 25.3125 67.8128C25.3328 67.8159 25.3521 67.8227 25.3695 67.8328C25.3869 67.8429 25.402 67.856 25.4139 67.8716C25.4258 67.8871 25.4343 67.9046 25.4389 67.9232C25.4435 67.9418 25.4442 67.9611 25.4407 67.9799L22.9155 82.1518L53.6285 78.5635C53.6694 78.559 53.7106 78.5696 53.7432 78.5931C53.7758 78.6165 53.7972 78.6509 53.8028 78.6889L55.6569 91.9861C55.6618 92.023 55.6513 92.0602 55.6278 92.0902C55.6042 92.1201 55.5693 92.1406 55.5301 92.1476L13.3541 99.2376C13.3448 99.239 13.3355 99.2398 13.3261 99.2398Z" fill="#0C0C0C"/>
<path d="M22.7025 82.1768L19.9895 82.5808L20.0389 82.8676L22.7518 82.4636L22.7025 82.1768Z" fill="#0C0C0C"/>
<path d="M165.654 22.1646C165.657 19.2121 165.026 16.2887 163.797 13.5666C162.568 10.8444 160.766 8.37838 158.498 6.31367C156.229 4.24895 153.539 2.62724 150.587 1.54396C147.635 0.460687 144.479 -0.0622707 141.306 0.0058661C128.425 0.275342 118.021 10.2181 118.057 22.2043C118.064 25.2983 118.769 28.3565 120.127 31.1806C121.486 34.0047 123.468 36.5314 125.944 38.597C131.272 43.0552 134.435 49.3255 134.426 55.992V56.0163L149.201 56.0322V56.0078C149.209 49.3502 152.371 43.0827 157.708 38.6458C160.207 36.5753 162.207 34.0364 163.576 31.1959C164.945 28.3555 165.653 25.2776 165.654 22.1646Z" fill="#FFCF28"/>
<path d="M148.976 24.3626C148.732 24.0699 148.306 23.888 147.713 23.826C146.708 23.7214 145.559 24.2514 144.573 25.2839L144.477 25.3814L144.403 25.2707C144.27 25.0711 144.12 24.8825 143.952 24.7072C143.242 23.9673 141.962 23.2117 139.889 23.807C139.192 23.9957 138.551 24.3307 138.016 24.7862L137.944 24.8496L137.871 24.7862C137.705 24.6457 137.525 24.5205 137.333 24.4123C136.168 23.7517 134.869 23.9099 133.985 24.1592C133.74 24.2288 133.53 24.3794 133.396 24.5827C133.261 24.7859 133.212 25.0279 133.256 25.2629L139.047 56.0541C139.056 56.1059 139.088 56.1519 139.134 56.1822C139.18 56.2125 139.237 56.2245 139.293 56.2156C139.348 56.2066 139.398 56.1775 139.43 56.1346C139.463 56.0917 139.476 56.0385 139.466 55.9868L133.674 25.1966C133.647 25.0565 133.677 24.9122 133.757 24.7909C133.836 24.6696 133.961 24.5797 134.108 24.5381C134.909 24.3128 136.08 24.1662 137.112 24.7518C137.281 24.847 137.44 24.9576 137.586 25.082L137.658 25.1434L137.599 25.2146C137.105 25.8203 136.83 26.5554 136.812 27.3151C136.757 28.6047 137.358 29.8943 138.153 30.1869C138.307 30.2454 138.475 30.2636 138.638 30.2396C138.802 30.2155 138.956 30.1502 139.083 30.0506C139.353 29.8447 139.764 29.3009 139.499 27.9738C139.263 26.8049 138.857 25.8765 138.29 25.2088L138.228 25.1376L138.3 25.0742C138.79 24.6594 139.377 24.3555 140.014 24.186C141.483 23.7648 142.735 24.0338 143.633 24.9713C143.834 25.1825 144.009 25.4141 144.156 25.6617L144.189 25.717L144.149 25.7685C144.07 25.866 143.994 25.9662 143.919 26.0692C143.061 27.2558 142.376 28.9449 142.903 29.8508C143.007 30.0265 143.163 30.1705 143.353 30.2656C143.543 30.3608 143.758 30.4031 143.973 30.3874H143.992C144.43 30.3815 144.798 30.1106 145.025 29.6279C145.471 28.6844 145.34 27.0844 144.717 25.8207L144.689 25.7653L144.732 25.7177C145.593 24.7486 146.571 24.2087 147.446 24.2087C147.521 24.2087 147.593 24.2126 147.666 24.2184C148.784 24.3372 148.767 24.8769 148.763 24.9383L144.034 55.9997C144.03 56.0255 144.032 56.0516 144.039 56.0768C144.046 56.1019 144.058 56.1256 144.075 56.1463C144.092 56.1671 144.113 56.1845 144.137 56.1977C144.161 56.2109 144.187 56.2195 144.215 56.2231C144.271 56.2287 144.326 56.2144 144.371 56.1832C144.415 56.152 144.446 56.1062 144.455 56.0551L149.181 24.9988C149.204 24.77 149.131 24.5418 148.976 24.3626ZM139.08 28.045C139.314 29.2139 138.972 29.6233 138.813 29.744C138.724 29.8148 138.612 29.854 138.496 29.8547C138.432 29.854 138.37 29.8426 138.311 29.8211C137.762 29.6172 137.184 28.5454 137.236 27.3309C137.258 26.693 137.475 26.0741 137.861 25.5468L137.944 25.4361L138.033 25.5448C138.579 26.295 138.937 27.1493 139.08 28.045ZM144.636 29.4689C144.474 29.8104 144.255 29.9872 143.985 29.9911H143.945C143.811 30.0047 143.676 29.9807 143.557 29.9222C143.438 29.8637 143.341 29.7733 143.277 29.6628C142.91 29.03 143.337 27.5802 144.274 26.2906L144.388 26.1323L144.473 26.2945C144.927 27.4 144.995 28.7054 144.636 29.4687V29.4689Z" fill="white"/>
<path d="M134.436 55.9968L149.21 56.0105L149.209 56.8138C149.207 58.6365 148.427 60.3837 147.04 61.6712C145.653 62.9588 143.774 63.681 141.814 63.6792C139.855 63.6774 137.977 62.9516 136.593 61.6615C135.209 60.3714 134.433 58.6227 134.435 56.8001L134.436 55.9968Z" fill="#073341"/>
</g>
<defs>
<clipPath id="clip0_427_963">
<rect width="260" height="229" fill="white"/>
</clipPath>
</defs>
</svg>
