<svg width="350" height="229" viewBox="0 0 350 229" fill="none" xmlns="http://www.w3.org/2000/svg">
<g clip-path="url(#clip0_431_825)">
<path d="M99.5829 223.373C99.6302 223.373 99.6767 223.36 99.7169 223.335C99.7571 223.31 99.7894 223.274 99.8102 223.231L106.467 209.575C106.481 209.546 106.49 209.513 106.492 209.48C106.494 209.447 106.489 209.414 106.478 209.383C106.467 209.351 106.451 209.322 106.429 209.297C106.407 209.273 106.38 209.252 106.35 209.238C106.32 209.223 106.288 209.215 106.255 209.213C106.222 209.211 106.189 209.215 106.157 209.226C106.126 209.237 106.097 209.254 106.072 209.276C106.047 209.298 106.027 209.324 106.013 209.354L99.3563 223.01C99.3375 223.049 99.3287 223.091 99.3309 223.134C99.3331 223.177 99.3461 223.218 99.3688 223.255C99.3915 223.291 99.423 223.321 99.4605 223.342C99.4979 223.362 99.5401 223.373 99.5829 223.373Z" fill="#073341"/>
<path d="M88.3281 222.581C88.3839 222.581 88.4381 222.562 88.4823 222.528C88.5265 222.494 88.5581 222.446 88.5722 222.392L96.2765 192.978C96.286 192.946 96.289 192.911 96.2852 192.878C96.2813 192.844 96.2708 192.812 96.2542 192.782C96.2375 192.753 96.2152 192.727 96.1884 192.706C96.1616 192.686 96.1309 192.671 96.0982 192.662C96.0655 192.654 96.0314 192.652 95.9979 192.657C95.9645 192.661 95.9323 192.673 95.9034 192.69C95.8744 192.708 95.8493 192.731 95.8295 192.758C95.8097 192.786 95.7955 192.817 95.788 192.85L88.0837 222.265C88.0753 222.297 88.0733 222.33 88.0778 222.363C88.0823 222.396 88.0933 222.427 88.11 222.456C88.1267 222.484 88.1489 222.509 88.1753 222.529C88.2017 222.549 88.2318 222.564 88.2639 222.572C88.2848 222.578 88.3064 222.581 88.3281 222.581Z" fill="#073341"/>
<path d="M73.631 223.883C73.6727 223.883 73.7137 223.873 73.7505 223.853C73.7873 223.833 73.8187 223.805 73.8418 223.77C73.8649 223.736 73.8791 223.696 73.8831 223.654C73.887 223.613 73.8807 223.571 73.8645 223.532L65.9002 204.775C65.8725 204.716 65.8229 204.67 65.7618 204.646C65.7007 204.623 65.6328 204.624 65.5726 204.65C65.5124 204.675 65.4644 204.723 65.4388 204.784C65.4132 204.844 65.412 204.912 65.4354 204.973L73.3998 223.73C73.4192 223.775 73.4514 223.814 73.4925 223.841C73.5336 223.868 73.5817 223.883 73.631 223.883Z" fill="#073341"/>
<path d="M88.0424 228.229C88.0631 228.229 88.0838 228.226 88.1039 228.221C88.1688 228.205 88.2246 228.164 88.2591 228.106C88.2935 228.049 88.3038 227.98 88.2876 227.915L79.0329 190.892C79.0248 190.86 79.0105 190.83 78.9908 190.803C78.9711 190.777 78.9463 190.754 78.9178 190.737C78.8894 190.72 78.8579 190.709 78.8251 190.704C78.7923 190.699 78.7589 190.701 78.7267 190.709C78.6946 190.717 78.6643 190.731 78.6377 190.751C78.6111 190.771 78.5886 190.795 78.5716 190.824C78.5545 190.852 78.5432 190.884 78.5384 190.917C78.5335 190.949 78.5352 190.983 78.5432 191.015L87.7975 228.038C87.8112 228.092 87.8428 228.141 87.8871 228.175C87.9315 228.21 87.9861 228.229 88.0424 228.229Z" fill="#073341"/>
<path d="M84.7603 198.479C87.2712 193.2 85.6326 187.174 81.1005 185.018C76.5683 182.862 70.8588 185.393 68.3479 190.671C65.837 195.95 67.4756 201.977 72.0077 204.132C76.5399 206.288 82.2494 203.757 84.7603 198.479Z" fill="#0CBC8B"/>
<path opacity="0.4" d="M84.7603 198.479C87.2712 193.2 85.6326 187.174 81.1005 185.018C76.5683 182.862 70.8588 185.393 68.3479 190.671C65.837 195.95 67.4756 201.977 72.0077 204.132C76.5399 206.288 82.2494 203.757 84.7603 198.479Z" fill="white"/>
<path d="M69.184 210.665C70.4937 207.413 69.3464 203.887 66.6213 202.79C63.8963 201.692 60.6255 203.439 59.3158 206.691C58.0061 209.943 59.1534 213.469 61.8785 214.566C64.6035 215.664 67.8743 213.917 69.184 210.665Z" fill="#0CBC8B"/>
<path d="M101.295 206.492C105.343 205.264 107.403 200.242 105.896 195.274C104.389 190.306 99.8864 187.274 95.8385 188.502C91.7905 189.729 89.7306 194.752 91.2374 199.72C92.7442 204.688 97.2472 207.72 101.295 206.492Z" fill="#0CBC8B"/>
<path d="M108.257 217.065C110.517 216.686 111.917 213.801 111.384 210.621C110.851 207.44 108.588 205.169 106.328 205.547C104.069 205.926 102.669 208.811 103.201 211.991C103.734 215.172 105.998 217.443 108.257 217.065Z" fill="#0CBC8B"/>
<path d="M66.2028 228.576H105.515V218.779H66.2028V228.576Z" fill="#073341"/>
<path opacity="0.3" d="M66.2028 228.576H105.515V218.779H66.2028V228.576Z" fill="white"/>
<path d="M84.8353 216.318C86.433 212.351 85.0209 208.045 81.6812 206.7C78.3415 205.354 74.339 207.48 72.7413 211.447C71.1436 215.414 72.5557 219.72 75.8954 221.065C79.235 222.41 83.2376 220.285 84.8353 216.318Z" fill="#0CBC8B"/>
<path d="M93.5605 220.082C96.8868 220.082 99.5832 217.386 99.5832 214.059C99.5832 210.733 96.8868 208.037 93.5605 208.037C90.2343 208.037 87.5378 210.733 87.5378 214.059C87.5378 217.386 90.2343 220.082 93.5605 220.082Z" fill="#0CBC8B"/>
<path opacity="0.68" d="M69.184 210.665C70.4937 207.413 69.3464 203.887 66.6213 202.79C63.8963 201.692 60.6255 203.439 59.3158 206.691C58.0061 209.943 59.1534 213.469 61.8785 214.566C64.6035 215.664 67.8743 213.917 69.184 210.665Z" fill="white"/>
<path opacity="0.68" d="M101.295 206.492C105.343 205.264 107.403 200.242 105.896 195.274C104.389 190.306 99.8864 187.274 95.8385 188.502C91.7905 189.729 89.7306 194.752 91.2374 199.72C92.7442 204.688 97.2472 207.72 101.295 206.492Z" fill="white"/>
<path opacity="0.68" d="M108.257 217.065C110.517 216.686 111.917 213.801 111.384 210.621C110.851 207.44 108.588 205.169 106.328 205.547C104.069 205.926 102.669 208.811 103.201 211.991C103.734 215.172 105.998 217.443 108.257 217.065Z" fill="white"/>
<path opacity="0.68" d="M84.8353 216.318C86.433 212.351 85.0209 208.045 81.6812 206.7C78.3415 205.354 74.339 207.48 72.7413 211.447C71.1436 215.414 72.5557 219.72 75.8954 221.065C79.235 222.41 83.2376 220.285 84.8353 216.318Z" fill="white"/>
<path opacity="0.4" d="M93.5605 220.082C96.8868 220.082 99.5832 217.386 99.5832 214.059C99.5832 210.733 96.8868 208.037 93.5605 208.037C90.2343 208.037 87.5378 210.733 87.5378 214.059C87.5378 217.386 90.2343 220.082 93.5605 220.082Z" fill="white"/>
<path d="M74.2153 208.989C78.7868 210.266 81.1925 206.531 81.1925 206.531L81.1898 206.526C78.7514 205.798 76.048 206.821 74.2153 208.989Z" fill="#073341"/>
<path d="M103.09 210.519C105.341 209.657 107.205 208.013 108.343 205.889C107.726 205.56 107.019 205.44 106.328 205.548C104.425 205.866 103.133 207.964 103.09 210.519Z" fill="#073341"/>
<path d="M92.4858 208.133C94.239 209.712 96.4294 210.724 98.7685 211.034C98.1453 209.964 97.2082 209.112 96.0843 208.593C94.9604 208.074 93.7041 207.914 92.4858 208.133Z" fill="#073341"/>
<path d="M164.91 8.94138H33.2655C28.8562 8.94138 25.2817 12.5158 25.2817 16.9252V145.122C25.2817 149.531 28.8562 153.105 33.2655 153.105H164.91C169.32 153.105 172.894 149.531 172.894 145.122V16.9252C172.894 12.5158 169.32 8.94138 164.91 8.94138Z" fill="#8FC1D0"/>
<path d="M161.392 73.5256L164.789 62.6714C164.864 62.4329 164.987 62.2125 165.152 62.0244C165.316 61.8362 165.518 61.6844 165.745 61.5785C165.971 61.4727 166.217 61.4151 166.467 61.4095C166.717 61.4039 166.965 61.4504 167.196 61.546C167.617 61.7358 167.952 62.0751 168.137 62.4981C168.322 62.921 168.343 63.3976 168.196 63.8353L167.468 66.1631L173.119 59.8959C173.735 59.1883 174.944 58.7137 175.692 59.4572C175.999 59.7244 176.206 60.0877 176.28 60.4878C176.353 60.8878 176.289 61.3011 176.098 61.6601C176.106 61.6642 176.114 61.6691 176.121 61.6749C176.125 61.6801 176.129 61.6857 176.133 61.6916L177.083 60.6017C177.259 60.3995 177.478 60.2392 177.724 60.1324C177.97 60.0256 178.237 59.975 178.504 59.9844C178.772 59.9937 179.035 60.0627 179.273 60.1863C179.51 60.3099 179.718 60.4851 179.879 60.699C180.127 61.0409 180.25 61.4575 180.227 61.8791C180.204 62.3007 180.038 62.7017 179.755 63.0151L179.35 63.4795C179.358 63.4974 179.363 63.5167 179.364 63.5363C179.71 63.2858 180.134 63.1666 180.56 63.1999C180.985 63.2332 181.385 63.4169 181.688 63.7181C182.01 64.0573 182.192 64.5053 182.198 64.9728C182.204 65.4402 182.033 65.8927 181.72 66.2398L180.715 67.3939C180.741 67.3876 180.768 67.3874 180.794 67.3935C180.819 67.3996 180.843 67.4118 180.863 67.429C180.886 67.4506 180.902 67.4785 180.91 67.5092C181.279 67.3712 181.684 67.3584 182.062 67.4728C182.439 67.5871 182.769 67.8223 183 68.1421C183.235 68.4837 183.347 68.8947 183.32 69.3084C183.292 69.7222 183.126 70.1145 182.848 70.422L174.375 80.1567C173.19 81.5186 171.625 82.4955 169.881 82.9621C168.136 83.4287 166.293 83.3638 164.586 82.7757C163.114 82.2685 161.898 81.2075 161.196 79.8181C160.493 78.4286 160.361 76.8202 160.826 75.3345L161.392 73.5256Z" fill="#E98862"/>
<g opacity="0.2">
<path opacity="0.2" d="M170.535 67.8898C170.568 67.918 170.611 67.9322 170.654 67.9294C170.698 67.9265 170.738 67.9069 170.767 67.8747L176.133 61.9069C176.162 61.874 176.177 61.831 176.175 61.7873C176.172 61.7435 176.153 61.7025 176.12 61.6732C176.087 61.6439 176.045 61.6286 176.001 61.6308C175.957 61.6329 175.916 61.6522 175.886 61.6846L170.52 67.654C170.491 67.6867 170.476 67.7296 170.478 67.7734C170.48 67.8171 170.5 67.8582 170.533 67.8875L170.535 67.8898Z" fill="#073341"/>
</g>
<g opacity="0.2">
<path opacity="0.2" d="M173.102 70.329C173.135 70.3572 173.178 70.3714 173.221 70.3687C173.264 70.3659 173.305 70.3464 173.334 70.3142L179.323 63.6535C179.352 63.6208 179.367 63.5779 179.364 63.5341C179.362 63.4904 179.343 63.4494 179.31 63.4199C179.277 63.3922 179.234 63.3781 179.191 63.3804C179.148 63.3827 179.107 63.4013 179.077 63.4324L173.088 70.0927C173.059 70.1255 173.044 70.1684 173.046 70.2121C173.049 70.2558 173.068 70.2969 173.101 70.3262L173.102 70.329Z" fill="#073341"/>
</g>
<g opacity="0.2">
<path opacity="0.2" d="M175.867 72.9869C175.9 73.0151 175.943 73.0293 175.986 73.0266C176.029 73.0238 176.07 73.0043 176.099 72.9721L180.876 67.659C180.89 67.6428 180.902 67.6239 180.909 67.6033C180.916 67.5828 180.919 67.561 180.918 67.5393C180.917 67.5175 180.912 67.4962 180.902 67.4765C180.893 67.4569 180.88 67.4392 180.863 67.4247C180.847 67.4101 180.828 67.3989 180.808 67.3916C180.787 67.3844 180.765 67.3812 180.744 67.3824C180.722 67.3835 180.701 67.389 180.681 67.3984C180.661 67.4078 180.644 67.4209 180.629 67.4371L175.852 72.7498C175.823 72.7826 175.808 72.8254 175.81 72.8691C175.812 72.9128 175.832 72.9539 175.864 72.9834L175.867 72.9869Z" fill="#073341"/>
</g>
<path d="M23.2121 76.5206L19.6842 65.2483C19.6067 65.0006 19.4785 64.7718 19.3076 64.5765C19.1368 64.3811 18.9272 64.2235 18.6921 64.1136C18.4569 64.0037 18.2015 63.9441 17.9421 63.9384C17.6826 63.9327 17.4249 63.9811 17.1851 64.0805C16.7481 64.2775 16.3999 64.6298 16.2079 65.069C16.0159 65.5083 15.9939 66.0032 16.1462 66.4577L16.9025 68.875L11.0348 62.365C10.3948 61.6297 9.13985 61.1369 8.3625 61.9088C8.04401 62.1864 7.82898 62.5636 7.75249 62.9791C7.67599 63.3946 7.74256 63.8237 7.94131 64.1965C7.93298 64.2009 7.92503 64.2059 7.91757 64.2117C7.91282 64.2172 7.90852 64.223 7.90472 64.2292L6.91794 63.0957C6.73507 62.8858 6.5077 62.7194 6.25239 62.6086C5.99708 62.4978 5.72025 62.4453 5.44209 62.455C5.16392 62.4647 4.89143 62.5363 4.64445 62.6646C4.39747 62.793 4.18224 62.9748 4.01443 63.1969C3.75723 63.5519 3.62977 63.9845 3.65337 64.4223C3.67696 64.86 3.85019 65.2764 4.14405 65.6017L4.56368 66.0844C4.55543 66.103 4.55055 66.1229 4.54927 66.1432C4.19004 65.8831 3.75 65.7593 3.30785 65.7939C2.8657 65.8285 2.45027 66.0192 2.13584 66.332C1.80186 66.6843 1.61303 67.1496 1.60704 67.635C1.60105 68.1204 1.77835 68.5902 2.10353 68.9506L3.14637 70.1487C3.11967 70.1422 3.09182 70.1421 3.06508 70.1485C3.03835 70.1549 3.01352 70.1675 2.99261 70.1853C2.96887 70.2078 2.95223 70.2368 2.94473 70.2686C2.56041 70.1258 2.13984 70.1133 1.74768 70.2328C1.35552 70.3524 1.0135 70.5975 0.7742 70.9304C0.530103 71.2851 0.412872 71.7119 0.441484 72.1415C0.470095 72.5712 0.642874 72.9786 0.931852 73.2979L9.7292 83.4066C10.96 84.8209 12.5851 85.8352 14.3962 86.3198C16.2073 86.8043 18.1219 86.7368 19.8944 86.126C21.4229 85.5996 22.6858 84.4979 23.4149 83.055C24.1439 81.6122 24.2816 79.9419 23.7987 78.3992L23.2121 76.5206Z" fill="#E98862"/>
<g opacity="0.2">
<path opacity="0.2" d="M13.7173 70.6684C13.6831 70.6976 13.6388 70.7124 13.5938 70.7095C13.5489 70.7066 13.5069 70.6862 13.4767 70.6528L7.90443 64.4554C7.87482 64.4212 7.85982 64.3768 7.86264 64.3317C7.86546 64.2866 7.88588 64.2444 7.91951 64.2141C7.95313 64.1839 7.99727 64.1681 8.04243 64.1702C8.08759 64.1722 8.13015 64.1918 8.16095 64.2249L13.7333 70.4224C13.7484 70.4392 13.7601 70.4588 13.7677 70.4801C13.7752 70.5015 13.7785 70.5241 13.7773 70.5467C13.7761 70.5693 13.7705 70.5914 13.7607 70.6118C13.7509 70.6323 13.7372 70.6505 13.7204 70.6657L13.7173 70.6684Z" fill="#073341"/>
</g>
<g opacity="0.2">
<path opacity="0.2" d="M11.052 73.2013C11.0178 73.2307 10.9735 73.2455 10.9285 73.2425C10.8836 73.2396 10.8415 73.2192 10.8114 73.1857L4.59254 66.2693C4.56208 66.2353 4.54636 66.1905 4.54884 66.1449C4.55132 66.0993 4.5718 66.0566 4.60578 66.026C4.64039 65.9969 4.68479 65.982 4.72996 65.9844C4.77513 65.9868 4.81771 66.0063 4.84907 66.0389L11.0679 72.9553C11.0985 72.9894 11.1143 73.0341 11.1119 73.0798C11.1095 73.1255 11.089 73.1683 11.0551 73.199L11.052 73.2013Z" fill="#073341"/>
</g>
<g opacity="0.2">
<path opacity="0.2" d="M8.18152 75.9616C8.14729 75.9909 8.103 76.0056 8.05808 76.0027C8.01315 75.9998 7.97113 75.9795 7.94096 75.946L2.97941 70.429C2.94885 70.3949 2.93307 70.3501 2.93556 70.3044C2.93804 70.2587 2.95857 70.2159 2.99264 70.1853C3.02671 70.1548 3.07152 70.139 3.11722 70.1415C3.16292 70.144 3.20576 70.1645 3.23632 70.1986L8.1967 75.7152C8.21187 75.732 8.22357 75.7517 8.23114 75.7731C8.2387 75.7944 8.24198 75.8171 8.24079 75.8397C8.2396 75.8623 8.23395 75.8845 8.22418 75.905C8.21442 75.9254 8.20071 75.9437 8.18386 75.9589L8.18152 75.9616Z" fill="#073341"/>
</g>
<path d="M129.249 75.9982L158.424 129.858L136.675 131.878L157.399 71.828L180.997 80.175L159.357 139.901C158.584 142.033 157.227 143.904 155.441 145.3C153.654 146.696 151.511 147.561 149.256 147.795C147.001 148.03 144.725 147.624 142.69 146.626C140.654 145.627 138.942 144.075 137.747 142.148L137.607 141.921L105.38 89.8314L129.249 75.9982Z" fill="#B7F2A2"/>
<path d="M112.511 37.1501C112.511 37.1501 117.719 33.3852 119.173 24.5018C120.299 17.6235 113.843 21.9619 113.843 21.9619C113.843 21.9619 114.606 17.0011 110.973 17.4203C107.34 17.8396 105.202 23.023 105.202 23.023" fill="#073341"/>
<path d="M92.229 17.6169C92.229 17.6169 74.2061 19.1739 80.2069 43.6745L81.7959 43.8139L85.021 44.0969" fill="#073341"/>
<path d="M109.293 69.3511C109.215 69.341 108.336 83.9006 91.4215 82.6312C79.7117 81.7542 75.5365 69.3305 75.2671 69.3305C76.5295 69.0623 78.6556 68.6719 79.2162 68.3729C81.0601 67.3823 83.3424 66.3511 83.936 62.7703C84.2785 60.7072 83.6974 50.1484 83.8764 48.0604L101.851 52.0721C101.6 56.4821 99.8417 66.7057 106.003 68.5154C107.029 68.8144 108.133 69.0896 109.293 69.3511Z" fill="#E98862"/>
<path opacity="0.52" d="M102.104 64.3371C101.822 63.4296 101.641 62.4941 101.563 61.5472C101.365 59.3867 101.404 57.211 101.68 55.059C98.0265 54.5658 94.5849 53.0579 91.7458 50.7066C91.4118 51.939 89.5764 57.3241 90.0844 58.4965C91.0459 60.7111 95.5602 64.3371 102.104 64.3371Z" fill="#073341"/>
<path d="M98.0946 61.6029C91.0178 60.8212 82.6246 56.1672 82.7005 46.5411L82.7686 37.8551C82.8441 28.229 87.9613 20.4651 97.0249 20.5364C106.088 20.6076 112.802 28.4645 112.726 38.0921L112.696 41.9373C112.663 43.2574 112.539 44.5737 112.327 45.877C111.791 49.3259 110.962 54.5689 108.542 58.0777C106.256 61.3868 102.617 62.1023 98.0946 61.6029Z" fill="#E98862"/>
<path opacity="0.5" d="M101.176 52.2391C102.615 52.538 103.964 53.1708 105.113 54.0866C105.162 54.1235 105.193 54.1782 105.201 54.2385C105.209 54.2988 105.193 54.3598 105.156 54.4081C105.119 54.4564 105.065 54.4881 105.004 54.4961C104.944 54.5041 104.883 54.4879 104.835 54.4509C102.341 52.5435 99.756 52.0694 97.3585 53.0799C97.31 53.1021 97.2602 53.1213 97.2095 53.1375C97.1508 53.1538 97.0881 53.1461 97.0352 53.1161C96.9822 53.0862 96.9433 53.0364 96.927 52.9778C96.9108 52.9191 96.9185 52.8564 96.9485 52.8035C96.9784 52.7505 97.0282 52.7116 97.0868 52.6953C97.1055 52.6891 97.1367 52.6755 97.1803 52.6564C98.4411 52.1227 99.8325 51.9774 101.176 52.2391Z" fill="#073341"/>
<path d="M109.639 43.724C110.256 43.724 110.756 43.2242 110.756 42.6076C110.756 41.991 110.256 41.4912 109.639 41.4912C109.023 41.4912 108.523 41.991 108.523 42.6076C108.523 43.2242 109.023 43.724 109.639 43.724Z" fill="#073341"/>
<path d="M99.4221 42.8984C100.039 42.8984 100.538 42.3985 100.538 41.782C100.538 41.1654 100.039 40.6656 99.4221 40.6656C98.8055 40.6656 98.3057 41.1654 98.3057 41.782C98.3057 42.3985 98.8055 42.8984 99.4221 42.8984Z" fill="#073341"/>
<path d="M83.2404 49.4781C80.486 49.4563 78.2761 46.492 78.2968 43.7376C78.3174 40.9832 80.5631 39.4822 83.3183 39.5036L84.7231 41.3604L85.6079 49.496L83.2404 49.4781Z" fill="#E98862"/>
<path d="M86.0707 45.1094C86.0707 45.1094 87.2809 31.5113 91.4274 30.7553C94.1888 30.252 100.777 34.2898 106.979 33.2388C109.692 32.7791 112.244 33.5008 112.478 34.7826C112.571 35.2887 114.404 28.0616 110.286 22.4621C107.006 18.0038 96.0059 16.5379 90.9599 17.8738C76.9853 21.5718 82.7382 40.0918 82.7382 40.0918L83.2614 44.7991L86.0707 45.1094Z" fill="#073341"/>
<g opacity="0.52">
<path opacity="0.52" d="M103.454 49.9401H103.472C104.359 49.9495 105.849 49.8662 105.857 49.2005C105.862 48.6505 104.419 42.6959 104.254 42.019C104.239 41.9618 104.202 41.9127 104.151 41.8824C104.1 41.8521 104.039 41.8429 103.982 41.8569C103.924 41.8709 103.875 41.9068 103.843 41.9571C103.812 42.0073 103.802 42.0679 103.815 42.1257C104.456 44.7629 105.41 48.821 105.405 49.1959C105.316 49.3516 104.396 49.496 103.477 49.4866C103.419 49.4867 103.363 49.5091 103.321 49.5491C103.279 49.589 103.254 49.6436 103.252 49.7015C103.249 49.7594 103.268 49.8162 103.306 49.8602C103.344 49.9041 103.397 49.9319 103.454 49.9378V49.9401Z" fill="#073341"/>
</g>
<path d="M106.616 36.5518C107.542 36.3151 108.515 36.3327 109.432 36.6028C109.884 36.7327 110.313 36.9295 110.706 37.1867C111.095 37.4394 111.451 37.7402 111.764 38.082C111.818 38.1352 111.848 38.2073 111.849 38.2825C111.849 38.3578 111.82 38.4303 111.768 38.4844C111.715 38.5385 111.644 38.5699 111.569 38.5717C111.493 38.5735 111.42 38.5457 111.365 38.4942L111.349 38.4787C111.055 38.1923 110.726 37.9438 110.371 37.7391C110.02 37.5358 109.641 37.3866 109.247 37.2965C108.468 37.1127 107.654 37.1379 106.888 37.3697L106.859 37.379C106.75 37.4142 106.631 37.4047 106.529 37.3526C106.428 37.3006 106.351 37.2101 106.315 37.1013C106.28 36.9924 106.29 36.874 106.342 36.7721C106.394 36.6703 106.484 36.5933 106.593 36.5581L106.616 36.5518Z" fill="#073341"/>
<path d="M100.011 36.859C99.2969 36.4973 98.4998 36.3309 97.7007 36.3767C97.2962 36.3967 96.8971 36.4778 96.5169 36.6172C96.131 36.7565 95.7642 36.9438 95.4251 37.1747L95.4068 37.1863C95.3438 37.225 95.2683 37.2379 95.196 37.2223C95.1238 37.2068 95.0603 37.1639 95.0188 37.1028C94.9773 37.0416 94.961 36.9668 94.9732 36.894C94.9854 36.8211 95.0253 36.7557 95.0844 36.7114C95.4529 36.4296 95.8555 36.1953 96.2826 36.0143C96.7143 35.8294 97.1714 35.7102 97.6384 35.6608C98.5886 35.5547 99.5498 35.7066 100.421 36.1007C100.525 36.1486 100.605 36.2359 100.645 36.3432C100.684 36.4506 100.68 36.5692 100.632 36.6731C100.584 36.7769 100.496 36.8575 100.389 36.897C100.282 36.9366 100.163 36.9318 100.059 36.8839L100.039 36.8741L100.011 36.859Z" fill="#073341"/>
<path d="M105.462 27.0879C107.508 26.704 108.71 23.9503 108.145 20.9374C107.579 17.9245 105.462 15.7932 103.415 16.1772C101.368 16.5611 100.167 19.3147 100.732 22.3277C101.297 25.3406 103.415 27.4718 105.462 27.0879Z" fill="#073341"/>
<path d="M91.0221 79.0438C79.2652 78.4895 78.7705 68.5103 78.7705 68.5103C78.7705 68.5103 72.9452 68.8867 69.0728 69.4107C62.7328 70.2671 58.5502 72.4181 55.222 75.7463C52.1258 78.8429 50.2394 82.1925 52.2356 103.579C53.6798 119.065 52.6638 153.128 52.6638 153.128H123.618C123.618 153.128 127.873 108.479 128.466 101.511C129.598 88.2035 134.233 80.7028 127.754 73.8475C123.055 68.8762 110.926 68.5103 106.042 68.5103C105.964 68.5103 107.033 79.7989 91.0221 79.0438Z" fill="#B7F2A2"/>
<path d="M76.7213 92.7295L43.5171 141.021L43.3677 141.238C42.1052 143.074 40.3594 144.525 38.3233 145.431C36.2873 146.336 34.0405 146.661 31.8315 146.368C29.6224 146.076 27.5374 145.178 25.807 143.774C24.0766 142.37 22.7684 140.515 22.0271 138.414L2.66357 83.5277L26.3374 75.3972L44.7811 130.598L23.2906 127.99L53.5278 77.7872L76.7213 92.7295Z" fill="#B7F2A2"/>
<path d="M126.475 123.163H126.459C126.414 123.158 126.372 123.136 126.343 123.101C126.313 123.066 126.299 123.02 126.303 122.975L128.554 98.9912C128.559 98.9462 128.582 98.905 128.617 98.8761C128.652 98.8472 128.697 98.8326 128.742 98.8355C128.787 98.8399 128.829 98.8622 128.858 98.8974C128.888 98.9326 128.902 98.9779 128.897 99.0235L126.647 123.007C126.643 123.05 126.623 123.089 126.591 123.118C126.56 123.147 126.518 123.163 126.475 123.163Z" fill="#073341"/>
<path d="M53.0039 125.959C52.9593 125.958 52.9164 125.941 52.8842 125.91C52.8521 125.879 52.8332 125.837 52.8315 125.792L52.0631 103.586C52.0616 103.541 52.0783 103.496 52.1094 103.463C52.1405 103.43 52.1837 103.41 52.2293 103.408C52.2744 103.409 52.3177 103.426 52.3508 103.457C52.3838 103.487 52.4042 103.529 52.408 103.574L53.1764 125.78C53.1778 125.826 53.1612 125.87 53.13 125.904C53.0989 125.937 53.0558 125.957 53.0101 125.959H53.0039Z" fill="#073341"/>
<path d="M244.213 96.5692V67.8291C244.213 66.903 243.845 66.0147 243.19 65.3598C242.535 64.7049 241.647 64.337 240.721 64.337H207.484C206.558 64.337 205.67 64.7049 205.015 65.3598C204.36 66.0147 203.992 66.903 203.992 67.8291V88.1942C203.992 89.1203 204.36 90.0086 205.015 90.6635C205.67 91.3184 206.558 91.6863 207.484 91.6863H235.092L242.907 97.2434C243.031 97.331 243.176 97.3829 243.328 97.3934C243.479 97.4039 243.63 97.3727 243.765 97.3031C243.9 97.2336 244.013 97.1283 244.092 96.9989C244.171 96.8694 244.213 96.7208 244.213 96.5692Z" fill="#0CBC8B"/>
<path opacity="0.5" d="M244.213 96.5692V67.8291C244.213 66.903 243.845 66.0147 243.19 65.3598C242.535 64.7049 241.647 64.337 240.721 64.337H207.484C206.558 64.337 205.67 64.7049 205.015 65.3598C204.36 66.0147 203.992 66.903 203.992 67.8291V88.1942C203.992 89.1203 204.36 90.0086 205.015 90.6635C205.67 91.3184 206.558 91.6863 207.484 91.6863H235.092L242.907 97.2434C243.031 97.331 243.176 97.3829 243.328 97.3934C243.479 97.4039 243.63 97.3727 243.765 97.3031C243.9 97.2336 244.013 97.1283 244.092 96.9989C244.171 96.8694 244.213 96.7208 244.213 96.5692Z" fill="white"/>
<path d="M235.096 81.7655C237.021 81.7655 238.582 80.2048 238.582 78.2796C238.582 76.3545 237.021 74.7938 235.096 74.7938C233.171 74.7938 231.61 76.3545 231.61 78.2796C231.61 80.2048 233.171 81.7655 235.096 81.7655Z" fill="white"/>
<path d="M224.103 81.7655C226.028 81.7655 227.589 80.2048 227.589 78.2796C227.589 76.3545 226.028 74.7938 224.103 74.7938C222.178 74.7938 220.617 76.3545 220.617 78.2796C220.617 80.2048 222.178 81.7655 224.103 81.7655Z" fill="white"/>
<path d="M213.11 81.7655C215.035 81.7655 216.595 80.2048 216.595 78.2796C216.595 76.3545 215.035 74.7938 213.11 74.7938C211.184 74.7938 209.624 76.3545 209.624 78.2796C209.624 80.2048 211.184 81.7655 213.11 81.7655Z" fill="white"/>
<path d="M146.133 43.1471V3.36752C146.133 2.92529 146.22 2.48739 146.389 2.07882C146.558 1.67026 146.806 1.29903 147.119 0.986322C147.432 0.67362 147.803 0.42557 148.212 0.256337C148.62 0.0871033 149.058 0 149.5 0L196.29 0C196.732 0 197.17 0.0871033 197.578 0.256337C197.987 0.42557 198.358 0.67362 198.671 0.986322C198.984 1.29903 199.232 1.67026 199.401 2.07882C199.57 2.48739 199.657 2.92529 199.657 3.36752V33.0294C199.657 33.4716 199.57 33.9095 199.401 34.3181C199.232 34.7266 198.984 35.0979 198.671 35.4106C198.358 35.7233 197.987 35.9713 197.578 36.1405C197.17 36.3098 196.732 36.3969 196.29 36.3969H158.27L147.667 43.9385C147.521 44.0421 147.35 44.1037 147.172 44.1165C146.995 44.1293 146.817 44.0928 146.658 44.011C146.5 43.9292 146.367 43.8053 146.274 43.6529C146.181 43.5005 146.132 43.3255 146.133 43.1471Z" fill="#0CBC8B"/>
<path d="M172.894 31.57C174.032 31.57 174.955 30.6474 174.955 29.5092C174.955 28.3711 174.032 27.4485 172.894 27.4485C171.756 27.4485 170.833 28.3711 170.833 29.5092C170.833 30.6474 171.756 31.57 172.894 31.57Z" fill="white"/>
<path d="M172.798 25.0362C172.443 25.0362 172.102 24.8949 171.85 24.6433C171.598 24.3918 171.457 24.0506 171.457 23.6948V18.7123C171.457 18.4112 171.558 18.1189 171.744 17.8824C171.931 17.6458 172.191 17.4788 172.484 17.4082C172.542 17.3938 178.543 15.8749 178.543 11.8363C178.543 9.30221 176.466 7.53223 173.491 7.53223C170.27 7.53223 168.614 10.7522 168.547 10.8896C168.386 11.2022 168.108 11.4389 167.774 11.5486C167.439 11.6584 167.075 11.6324 166.76 11.4764C166.445 11.3203 166.203 11.0467 166.088 10.7144C165.972 10.382 165.992 10.0176 166.142 9.69964C166.24 9.5019 168.585 4.84943 173.493 4.84943C177.975 4.84943 181.228 7.78758 181.228 11.8363C181.228 16.7157 176.332 18.9505 174.143 19.706V23.6948C174.143 23.8713 174.109 24.046 174.041 24.209C173.973 24.3719 173.874 24.52 173.749 24.6446C173.624 24.7692 173.476 24.8679 173.313 24.9351C173.15 25.0023 172.975 25.0367 172.798 25.0362Z" fill="white"/>
<path d="M308.133 89.664C308.133 89.664 310.982 103.321 314.386 107.453C324.186 119.348 328.488 133.637 321.456 142.352C314.423 151.068 265.436 158.107 259.173 141.085C253.902 126.755 259.557 124.217 259.626 111.799C259.657 106.181 260.435 94.3305 260.435 94.3305" fill="#0A0A0A"/>
<path d="M267.19 133.86C267.28 133.848 268.274 150.337 287.429 148.9C300.691 147.906 305.419 133.835 305.725 133.835C304.295 133.532 301.887 133.089 301.252 132.751C299.164 131.629 296.581 130.461 295.907 126.406C295.518 124.07 296.177 112.111 295.975 109.745L275.617 114.291C275.901 119.285 277.892 130.864 270.915 132.913C269.754 133.252 268.503 133.564 267.19 133.86Z" fill="#E98862"/>
<path opacity="0.5" d="M275.333 128.181C275.652 127.154 275.857 126.094 275.945 125.022C276.169 122.575 276.125 120.111 275.812 117.674C279.95 117.115 283.847 115.407 287.062 112.745C287.44 114.141 289.519 120.24 288.943 121.567C287.855 124.075 282.742 128.181 275.333 128.181Z" fill="#073341"/>
<path d="M278.955 124.559C287.013 124.256 296.875 119.687 297.578 108.808L298.213 98.9912C298.917 88.112 293.773 78.9231 283.529 78.2606C273.286 77.5988 265.059 85.9224 264.356 96.802L264.075 101.148C263.805 105.322 264.58 125.1 278.955 124.559Z" fill="#E98862"/>
<path opacity="0.1" d="M282.138 109.999C283.468 109.979 284.534 109.172 284.519 108.196C284.504 107.221 283.414 106.447 282.084 106.467C280.754 106.487 279.688 107.294 279.703 108.27C279.718 109.245 280.808 110.02 282.138 109.999Z" fill="#073341"/>
<path opacity="0.1" d="M267.791 108.024C267.803 108.998 266.738 109.805 265.407 109.827C265.178 109.831 264.948 109.81 264.722 109.766C264.507 108.632 264.356 107.532 264.252 106.51C264.603 106.37 264.977 106.297 265.355 106.295C266.685 106.273 267.775 107.047 267.791 108.024Z" fill="#073341"/>
<path d="M267.428 100.697C268.124 100.697 268.688 100.132 268.688 99.4365C268.688 98.7406 268.124 98.1765 267.428 98.1765C266.732 98.1765 266.168 98.7406 266.168 99.4365C266.168 100.132 266.732 100.697 267.428 100.697Z" fill="#073341"/>
<path d="M279.896 101.628C280.592 101.628 281.156 101.064 281.156 100.368C281.156 99.6721 280.592 99.108 279.896 99.108C279.2 99.108 278.636 99.6721 278.636 100.368C278.636 101.064 279.2 101.628 279.896 101.628Z" fill="#073341"/>
<path opacity="0.5" d="M273.975 110.208H273.954C273.539 110.178 273.126 110.125 272.717 110.05C272.105 109.933 271.295 109.714 271.33 109.17C271.369 108.551 273.501 101.972 273.744 101.224C273.753 101.19 273.769 101.159 273.791 101.132C273.813 101.105 273.84 101.082 273.871 101.066C273.902 101.05 273.935 101.039 273.97 101.036C274.005 101.033 274.04 101.037 274.073 101.048C274.106 101.059 274.137 101.076 274.163 101.099C274.189 101.122 274.211 101.15 274.226 101.181C274.241 101.213 274.25 101.247 274.252 101.282C274.254 101.316 274.248 101.351 274.236 101.384C273.327 104.187 271.874 108.787 271.847 109.204C271.937 109.385 272.958 109.624 273.988 109.69C274.055 109.695 274.117 109.726 274.161 109.775C274.206 109.824 274.23 109.889 274.228 109.956C274.227 110.022 274.199 110.086 274.152 110.133C274.105 110.18 274.042 110.207 273.975 110.208L273.975 110.208Z" fill="#073341"/>
<path opacity="0.5" d="M276.022 114.615C274.363 114.605 272.73 114.205 271.254 113.448C271.193 113.417 271.145 113.364 271.123 113.299C271.101 113.234 271.105 113.163 271.135 113.101C271.166 113.039 271.219 112.992 271.284 112.97C271.349 112.948 271.42 112.952 271.482 112.982C274.665 114.539 277.632 114.49 280.06 112.838C280.109 112.803 280.16 112.771 280.212 112.741C280.273 112.714 280.343 112.711 280.406 112.733C280.469 112.755 280.521 112.801 280.551 112.861C280.581 112.92 280.587 112.989 280.568 113.053C280.548 113.117 280.504 113.171 280.446 113.204C280.426 113.215 280.395 113.237 280.351 113.267C279.074 114.137 277.567 114.607 276.022 114.615Z" fill="#073341"/>
<path d="M306.507 101.339L297.331 100.799C290.196 98.8849 286.693 87.3732 286.693 87.3732C286.693 87.3732 280.985 96.4349 260.418 94.3212C260.418 94.3212 259.416 65.5282 289.991 70.4037C299.823 71.9712 307.864 80.6078 308.591 93.5469C309.101 102.615 306.507 101.339 306.507 101.339Z" fill="#0A0A0A"/>
<path d="M296.728 112.081C299.842 112.283 302.58 109.115 302.781 106.002C302.982 102.889 300.57 101.009 297.457 100.808L295.718 102.79L294.051 111.908L296.728 112.081Z" fill="#E98862"/>
<path d="M270.93 96.5867C270.099 96.1527 269.169 95.9464 268.232 95.9888C267.762 96.007 267.296 96.0961 266.852 96.2531C266.404 96.4092 265.977 96.621 265.582 96.8833L265.569 96.8911C265.525 96.9181 265.472 96.9268 265.422 96.9153C265.371 96.9038 265.328 96.873 265.3 96.8296C265.271 96.7861 265.261 96.7334 265.272 96.6827C265.282 96.632 265.312 96.5874 265.355 96.5583C265.771 96.2612 266.223 96.0177 266.7 95.8335C267.181 95.6458 267.686 95.5314 268.201 95.494C269.242 95.4121 270.287 95.611 271.225 96.0701C271.296 96.1054 271.349 96.1672 271.374 96.2421C271.399 96.3169 271.393 96.3986 271.358 96.4691C271.323 96.5397 271.261 96.5934 271.186 96.6183C271.111 96.6433 271.03 96.6375 270.959 96.6023L270.951 96.5984L270.93 96.5867Z" fill="#073341"/>
<path d="M279.249 96.6151C280.237 96.2764 281.298 96.2092 282.321 96.4205C282.827 96.5214 283.314 96.6978 283.768 96.9436C284.219 97.1857 284.637 97.4836 285.013 97.8304C285.053 97.8644 285.077 97.9125 285.082 97.9644C285.086 98.0163 285.069 98.0678 285.036 98.1077C285.002 98.1476 284.955 98.1727 284.903 98.1776C284.851 98.1825 284.799 98.1669 284.759 98.134L284.747 98.1247C284.388 97.815 283.991 97.5518 283.565 97.3411C283.144 97.1303 282.694 96.9841 282.229 96.9074C281.305 96.7487 280.356 96.8375 279.478 97.1647L279.456 97.1733C279.383 97.2019 279.301 97.2002 279.228 97.1685C279.156 97.1368 279.099 97.0777 279.071 97.0042C279.042 96.9307 279.044 96.8488 279.076 96.7765C279.107 96.7043 279.166 96.6476 279.24 96.619L279.249 96.6151Z" fill="#073341"/>
<path opacity="0.52" d="M275.972 117.072C275.672 117.075 275.373 117.052 275.077 117.004C275.009 116.993 274.948 116.956 274.908 116.9C274.868 116.845 274.851 116.775 274.862 116.707C274.873 116.64 274.91 116.579 274.965 116.539C275.021 116.498 275.09 116.482 275.158 116.492C276.94 116.776 277.837 115.999 277.875 115.966C277.926 115.92 277.993 115.896 278.061 115.9C278.13 115.903 278.194 115.934 278.241 115.985C278.287 116.036 278.31 116.103 278.307 116.171C278.304 116.24 278.273 116.304 278.222 116.35C277.578 116.844 276.783 117.099 275.972 117.072Z" fill="#073341"/>
<path d="M297.431 100.663C291.119 99.2376 288.565 95.3554 287.534 92.3496C286.859 90.3433 286.611 88.2183 286.804 86.1104L286.999 86.1365C286.808 88.2169 287.055 90.314 287.722 92.2935C288.738 95.2496 291.255 99.0667 297.475 100.474L297.431 100.663Z" fill="#073341"/>
<path d="M206.296 127.79L203.152 114.833C203.083 114.548 202.955 114.281 202.777 114.048C202.599 113.816 202.374 113.623 202.118 113.481C201.861 113.34 201.578 113.254 201.286 113.229C200.994 113.203 200.7 113.239 200.423 113.333C199.916 113.523 199.498 113.894 199.249 114.374C199.001 114.855 198.94 115.411 199.077 115.934L199.752 118.712L193.621 110.948C192.955 110.074 191.577 109.426 190.645 110.238C190.266 110.527 189.996 110.936 189.879 111.399C189.762 111.861 189.806 112.349 190.002 112.784C189.992 112.788 189.983 112.793 189.974 112.8C189.969 112.805 189.963 112.811 189.959 112.818L188.93 111.469C188.74 111.219 188.496 111.015 188.217 110.871C187.937 110.727 187.629 110.648 187.315 110.638C187.001 110.629 186.689 110.689 186.402 110.816C186.114 110.942 185.858 111.131 185.653 111.369C185.337 111.75 185.162 112.228 185.156 112.723C185.15 113.217 185.315 113.699 185.622 114.087L186.059 114.662C186.048 114.682 186.041 114.704 186.038 114.727C185.653 114.407 185.166 114.236 184.666 114.242C184.165 114.248 183.683 114.433 183.306 114.762C182.904 115.134 182.657 115.644 182.615 116.19C182.572 116.737 182.737 117.279 183.077 117.709L184.163 119.136C184.134 119.126 184.102 119.124 184.072 119.129C184.041 119.134 184.012 119.147 183.987 119.165C183.959 119.189 183.938 119.22 183.927 119.255C183.505 119.067 183.033 119.022 182.583 119.127C182.133 119.232 181.73 119.483 181.436 119.839C181.135 120.221 180.971 120.693 180.972 121.179C180.972 121.665 181.137 122.137 181.439 122.518L190.605 134.552C191.887 136.235 193.643 137.497 195.648 138.176C197.652 138.855 199.813 138.92 201.855 138.363C203.615 137.882 205.118 136.734 206.046 135.163C206.973 133.591 207.251 131.72 206.821 129.947L206.296 127.79Z" fill="#E98862"/>
<g opacity="0.2">
<path opacity="0.2" d="M196.032 120.499C195.991 120.53 195.94 120.543 195.89 120.536C195.839 120.53 195.793 120.504 195.762 120.464L189.942 113.073C189.91 113.033 189.895 112.981 189.901 112.93C189.907 112.878 189.934 112.832 189.974 112.8C190.015 112.768 190.066 112.753 190.118 112.759C190.169 112.765 190.216 112.792 190.248 112.832L196.068 120.223C196.1 120.264 196.114 120.315 196.108 120.366C196.102 120.417 196.076 120.464 196.035 120.496L196.032 120.499Z" fill="#073341"/>
</g>
<g opacity="0.2">
<path opacity="0.2" d="M192.843 123.156C192.802 123.186 192.751 123.2 192.701 123.193C192.651 123.187 192.605 123.161 192.573 123.121L186.078 114.872C186.046 114.831 186.032 114.78 186.038 114.729C186.044 114.678 186.07 114.631 186.11 114.599C186.151 114.569 186.202 114.556 186.253 114.562C186.304 114.568 186.35 114.593 186.383 114.632L192.878 122.88C192.91 122.92 192.924 122.972 192.918 123.023C192.912 123.074 192.886 123.12 192.846 123.152L192.843 123.156Z" fill="#073341"/>
</g>
<g opacity="0.2">
<path opacity="0.2" d="M189.406 126.054C189.366 126.084 189.315 126.097 189.264 126.091C189.214 126.084 189.168 126.058 189.137 126.018L183.955 119.44C183.939 119.42 183.927 119.396 183.919 119.372C183.912 119.347 183.91 119.321 183.913 119.295C183.915 119.27 183.923 119.245 183.936 119.222C183.948 119.2 183.965 119.18 183.986 119.164C184.006 119.148 184.029 119.136 184.054 119.129C184.079 119.122 184.105 119.12 184.131 119.124C184.156 119.127 184.181 119.135 184.203 119.148C184.226 119.161 184.245 119.178 184.261 119.199L189.442 125.778C189.474 125.818 189.488 125.869 189.482 125.921C189.476 125.972 189.45 126.018 189.41 126.05L189.406 126.054Z" fill="#073341"/>
</g>
<path d="M246.325 138.913L220.932 168.73L210.237 127.106L182.931 134.36L200.701 199.113C201.28 201.195 202.339 203.113 203.792 204.713C205.002 206.034 206.46 207.105 208.083 207.863C209.706 208.621 211.463 209.052 213.252 209.131C215.042 209.21 216.83 208.936 218.514 208.325C220.197 207.713 221.744 206.775 223.066 205.566L223.295 205.356L268.688 161.724L246.325 138.913Z" fill="#B7F2A2"/>
<path d="M206.295 127.79L203.152 114.833C203.083 114.548 202.955 114.281 202.777 114.048C202.599 113.816 202.374 113.622 202.118 113.481C201.861 113.34 201.578 113.254 201.286 113.229C200.994 113.203 200.7 113.239 200.423 113.333C199.916 113.523 199.498 113.894 199.249 114.374C199.001 114.855 198.939 115.411 199.077 115.934L199.752 118.712L200.643 123.646" fill="#E98862"/>
<path d="M287.787 144.778C301.058 144.152 301.616 132.889 301.616 132.889C301.616 132.889 308.192 133.313 312.563 133.905C319.719 134.873 324.44 137.3 328.197 141.057C331.692 144.552 333.819 148.333 331.568 172.474C329.938 189.952 331.085 228.403 331.085 228.403H250.994C250.994 228.403 246.191 178.007 245.522 170.139C244.244 155.117 239.012 146.651 246.325 138.913C251.629 133.301 265.321 132.889 270.833 132.889C270.922 132.889 269.714 145.63 287.787 144.778Z" fill="#B7F2A2"/>
<path d="M245.988 167.627C245.986 167.601 245.98 167.576 245.968 167.553C245.957 167.53 245.941 167.51 245.922 167.493C245.903 167.476 245.881 167.463 245.856 167.455C245.832 167.446 245.807 167.443 245.781 167.444C245.755 167.446 245.73 167.453 245.707 167.464C245.684 167.475 245.664 167.491 245.647 167.51C245.63 167.529 245.617 167.552 245.609 167.576C245.6 167.6 245.597 167.626 245.599 167.651L246.413 182.857C246.416 182.904 246.435 182.948 246.468 182.981C246.501 183.015 246.545 183.035 246.592 183.039C246.601 183.04 246.61 183.04 246.619 183.039C246.67 183.036 246.719 183.012 246.753 182.974C246.787 182.935 246.804 182.884 246.801 182.833" fill="#073341"/>
<path d="M263.634 205.601L250.678 202.453C250.393 202.384 250.098 202.374 249.809 202.426C249.521 202.477 249.246 202.589 249.003 202.752C248.76 202.915 248.554 203.128 248.397 203.375C248.241 203.623 248.137 203.9 248.094 204.19C248.03 204.727 248.168 205.269 248.481 205.71C248.794 206.151 249.26 206.461 249.788 206.578L252.566 207.253L242.856 209.141C241.773 209.332 240.565 210.259 240.86 211.46C240.943 211.93 241.183 212.358 241.541 212.674C241.898 212.99 242.353 213.175 242.829 213.199C242.828 213.21 242.828 213.221 242.829 213.231C242.832 213.239 242.835 213.247 242.839 213.254L241.168 213.548C240.859 213.603 240.566 213.726 240.31 213.908C240.054 214.091 239.842 214.328 239.69 214.603C239.537 214.877 239.448 215.183 239.428 215.496C239.409 215.81 239.46 216.124 239.577 216.416C239.77 216.871 240.115 217.246 240.552 217.478C240.989 217.71 241.492 217.785 241.978 217.69L242.689 217.565C242.702 217.583 242.718 217.6 242.737 217.613C242.277 217.809 241.901 218.162 241.677 218.61C241.453 219.058 241.396 219.571 241.515 220.057C241.661 220.585 242.001 221.039 242.468 221.327C242.934 221.616 243.491 221.718 244.03 221.614L245.795 221.302C245.773 221.324 245.757 221.351 245.748 221.381C245.738 221.41 245.736 221.442 245.741 221.472C245.749 221.508 245.767 221.541 245.794 221.567C245.432 221.856 245.175 222.255 245.063 222.704C244.95 223.153 244.988 223.626 245.171 224.051C245.372 224.494 245.716 224.855 246.149 225.078C246.581 225.3 247.076 225.37 247.553 225.277L262.45 222.65C264.534 222.282 266.461 221.3 267.983 219.831C269.506 218.361 270.555 216.47 270.996 214.4C271.376 212.616 271.045 210.753 270.074 209.208C269.103 207.663 267.568 206.558 265.794 206.127L263.634 205.601Z" fill="#E98862"/>
<g opacity="0.2">
<path opacity="0.2" d="M252.448 211.378C252.457 211.428 252.445 211.48 252.416 211.522C252.387 211.564 252.343 211.592 252.292 211.602L243.056 213.385C243.005 213.395 242.952 213.384 242.91 213.355C242.867 213.326 242.837 213.281 242.828 213.231C242.818 213.18 242.828 213.127 242.857 213.085C242.886 213.042 242.931 213.012 242.982 213.002L252.218 211.219C252.244 211.214 252.27 211.215 252.295 211.22C252.32 211.225 252.344 211.235 252.365 211.25C252.386 211.264 252.404 211.283 252.418 211.304C252.432 211.326 252.442 211.35 252.447 211.375L252.448 211.378Z" fill="#073341"/>
</g>
<g opacity="0.2">
<path opacity="0.2" d="M253.347 215.43C253.355 215.481 253.344 215.532 253.315 215.574C253.286 215.616 253.241 215.644 253.191 215.654L242.883 217.644C242.858 217.648 242.832 217.648 242.806 217.643C242.781 217.638 242.758 217.628 242.736 217.613C242.715 217.599 242.697 217.58 242.683 217.559C242.669 217.537 242.659 217.513 242.655 217.488C242.647 217.437 242.658 217.386 242.687 217.343C242.716 217.301 242.76 217.271 242.81 217.26L253.118 215.27C253.144 215.266 253.17 215.266 253.195 215.271C253.22 215.276 253.244 215.286 253.265 215.301C253.286 215.315 253.304 215.334 253.318 215.355C253.332 215.377 253.342 215.401 253.347 215.426L253.347 215.43Z" fill="#073341"/>
</g>
<g opacity="0.2">
<path opacity="0.2" d="M254.346 219.813C254.354 219.864 254.343 219.915 254.313 219.957C254.284 219.999 254.24 220.027 254.19 220.037L245.967 221.624C245.917 221.634 245.864 221.623 245.821 221.594C245.779 221.565 245.749 221.521 245.739 221.47C245.73 221.419 245.74 221.367 245.769 221.324C245.798 221.281 245.843 221.252 245.894 221.242L254.116 219.655C254.142 219.65 254.168 219.65 254.193 219.655C254.218 219.66 254.242 219.671 254.263 219.685C254.284 219.699 254.302 219.718 254.316 219.74C254.33 219.761 254.34 219.785 254.345 219.81L254.346 219.813Z" fill="#073341"/>
</g>
<path d="M262.343 227.744L331.958 228.123C334.2 228.367 336.469 228.089 338.585 227.309C340.701 226.529 342.608 225.269 344.156 223.629C345.703 221.988 346.85 220.011 347.505 217.853C348.161 215.695 348.307 213.415 347.933 211.19L332.424 149.064C332.106 147.174 331.419 145.364 330.402 143.739C329.385 142.114 328.057 140.706 326.496 139.594C324.934 138.482 323.169 137.688 321.301 137.258C319.432 136.829 317.498 136.771 315.607 137.089C313.717 137.407 311.908 138.094 310.283 139.111C308.658 140.128 307.249 141.456 306.137 143.017C305.025 144.579 304.231 146.344 303.802 148.212C303.372 150.081 303.314 152.015 303.632 153.906L315.526 200.709L262.682 202.443L262.343 227.744Z" fill="#B7F2A2"/>
<path d="M324.627 200.509C324.676 200.509 324.723 200.49 324.759 200.457C324.795 200.424 324.816 200.378 324.82 200.329C324.824 200.28 324.809 200.232 324.778 200.194C324.748 200.155 324.704 200.13 324.656 200.122L315.64 200.45C315.615 200.446 315.589 200.447 315.564 200.453C315.539 200.459 315.516 200.47 315.495 200.485C315.474 200.5 315.457 200.519 315.444 200.541C315.431 200.563 315.422 200.588 315.419 200.613C315.411 200.664 315.424 200.716 315.455 200.758C315.486 200.799 315.532 200.827 315.583 200.834L324.598 200.507C324.608 200.509 324.618 200.509 324.627 200.509Z" fill="#073341"/>
<path d="M329.934 228.403C329.985 228.407 330.036 228.389 330.075 228.355C330.114 228.321 330.137 228.273 330.141 228.221C330.144 228.169 330.127 228.119 330.092 228.08C330.058 228.041 330.01 228.017 329.959 228.014L262.751 227.595L263.045 202.682L315.577 200.836C315.607 200.839 315.638 200.836 315.667 200.826C315.695 200.816 315.721 200.8 315.743 200.778C315.764 200.756 315.78 200.73 315.789 200.7C315.798 200.671 315.8 200.64 315.795 200.61L310.066 172.478C310.062 172.453 310.053 172.429 310.04 172.407C310.026 172.385 310.009 172.366 309.988 172.351C309.967 172.336 309.943 172.326 309.918 172.32C309.893 172.315 309.867 172.314 309.842 172.319C309.817 172.323 309.793 172.332 309.771 172.346C309.749 172.359 309.731 172.377 309.716 172.398C309.701 172.418 309.69 172.442 309.684 172.467C309.679 172.492 309.678 172.518 309.682 172.543L315.367 200.414L262.899 202.269C262.873 202.265 262.847 202.267 262.822 202.274C262.797 202.281 262.773 202.292 262.753 202.309C262.733 202.325 262.716 202.345 262.703 202.367C262.69 202.39 262.683 202.415 262.68 202.441L262.343 227.743C262.338 227.794 262.352 227.844 262.384 227.884C262.415 227.924 262.461 227.95 262.511 227.957L329.908 228.402C329.916 228.403 329.925 228.403 329.934 228.403Z" fill="#073341"/>
<path d="M199.969 208.702H110.777C109.161 208.702 107.612 208.06 106.469 206.918C105.326 205.775 104.684 204.225 104.684 202.609L96.3848 137.051C96.3847 136.25 96.5423 135.458 96.8484 134.719C97.1546 133.98 97.6034 133.308 98.1692 132.742C98.7349 132.176 99.4066 131.728 100.146 131.422C100.885 131.115 101.677 130.958 102.478 130.958H191.669C192.469 130.958 193.261 131.115 194.001 131.422C194.74 131.728 195.412 132.176 195.977 132.742C196.543 133.308 196.992 133.98 197.298 134.719C197.605 135.458 197.762 136.25 197.762 137.051L206.062 202.609C206.062 203.409 205.904 204.202 205.598 204.941C205.292 205.68 204.843 206.352 204.277 206.918C203.711 207.483 203.04 207.932 202.301 208.238C201.561 208.545 200.769 208.702 199.969 208.702Z" fill="#073341"/>
<path d="M152.209 228.403H131.388C130.902 228.403 130.423 228.288 129.99 228.068C129.557 227.847 129.182 227.528 128.896 227.135C128.61 226.742 128.422 226.287 128.345 225.807C128.269 225.327 128.307 224.836 128.456 224.374L140.943 185.773C141.143 185.154 141.535 184.614 142.062 184.23C142.588 183.847 143.223 183.641 143.874 183.641H162.641C162.981 183.641 163.316 183.717 163.621 183.866C163.927 184.014 164.194 184.229 164.404 184.496C164.614 184.763 164.761 185.074 164.833 185.406C164.905 185.737 164.901 186.081 164.821 186.411L155.206 226.049C155.043 226.72 154.659 227.318 154.115 227.745C153.572 228.172 152.9 228.404 152.209 228.403Z" fill="#073341"/>
<path d="M170.314 224.909H133.193C132.228 224.909 131.446 225.691 131.446 226.656C131.446 227.621 132.228 228.403 133.193 228.403H170.314C171.279 228.403 172.061 227.621 172.061 226.656C172.061 225.691 171.279 224.909 170.314 224.909Z" fill="#073341"/>
<path opacity="0.2" d="M170.314 224.909H155.483L164.825 186.411C164.905 186.081 164.909 185.737 164.837 185.406C164.765 185.074 164.618 184.763 164.408 184.496C164.198 184.23 163.93 184.014 163.625 183.866C163.32 183.718 162.985 183.641 162.645 183.641H143.874C143.223 183.641 142.588 183.847 142.062 184.23C141.535 184.614 141.143 185.154 140.943 185.773L128.456 224.374C128.307 224.836 128.269 225.327 128.345 225.807C128.421 226.287 128.61 226.742 128.896 227.135C129.182 227.528 129.557 227.847 129.99 228.068C130.423 228.288 130.901 228.403 131.387 228.403H170.314C170.777 228.403 171.221 228.219 171.549 227.892C171.877 227.564 172.061 227.12 172.061 226.656C172.061 226.193 171.877 225.749 171.549 225.421C171.221 225.093 170.777 224.909 170.314 224.909Z" fill="white"/>
<path d="M150.863 199.065C153.836 199.065 156.246 196.655 156.246 193.683C156.246 190.71 153.836 188.3 150.863 188.3C147.89 188.3 145.48 190.71 145.48 193.683C145.48 196.655 147.89 199.065 150.863 199.065Z" fill="#073341"/>
<path d="M193.3 224.909H195.378C195.433 224.63 195.583 224.378 195.803 224.198C196.022 224.017 196.298 223.918 196.582 223.918H198.235C198.519 223.918 198.795 224.017 199.015 224.198C199.234 224.378 199.384 224.63 199.439 224.909H200.732C200.787 224.63 200.937 224.378 201.156 224.198C201.376 224.017 201.651 223.918 201.936 223.918H203.588C203.873 223.918 204.148 224.017 204.368 224.198C204.588 224.378 204.738 224.63 204.792 224.909H206.085C206.14 224.63 206.29 224.379 206.509 224.198C206.729 224.017 207.005 223.918 207.289 223.918H208.942C209.226 223.918 209.502 224.017 209.722 224.198C209.941 224.379 210.091 224.63 210.146 224.909H211.439C211.493 224.63 211.643 224.378 211.863 224.198C212.082 224.017 212.358 223.918 212.643 223.918H214.297C214.581 223.918 214.857 224.017 215.076 224.198C215.296 224.378 215.446 224.63 215.501 224.909H216.794C216.848 224.63 216.998 224.378 217.218 224.198C217.438 224.017 217.713 223.918 217.998 223.918H219.65C219.935 223.918 220.21 224.017 220.43 224.198C220.649 224.378 220.799 224.63 220.854 224.909H221.788C221.843 224.63 221.993 224.378 222.213 224.198C222.432 224.017 222.708 223.918 222.992 223.918H237.664C237.949 223.918 238.225 224.017 238.444 224.198C238.664 224.378 238.814 224.63 238.868 224.909H240.066C240.12 224.63 240.27 224.378 240.49 224.198C240.71 224.017 240.985 223.918 241.27 223.918H242.922C243.207 223.918 243.482 224.017 243.702 224.198C243.922 224.378 244.071 224.63 244.126 224.909H245.419C245.474 224.63 245.624 224.378 245.844 224.198C246.063 224.017 246.339 223.918 246.623 223.918H248.276C248.56 223.918 248.836 224.017 249.055 224.198C249.275 224.378 249.425 224.63 249.48 224.909H250.77C250.825 224.63 250.975 224.379 251.195 224.198C251.414 224.017 251.69 223.918 251.974 223.918H253.627C253.911 223.918 254.187 224.017 254.407 224.198C254.626 224.379 254.776 224.63 254.831 224.909H256.124C256.178 224.63 256.328 224.378 256.548 224.198C256.767 224.017 257.043 223.918 257.328 223.918H258.98C259.265 223.918 259.54 224.017 259.76 224.198C259.979 224.378 260.129 224.63 260.184 224.909H265.622C266.086 224.909 266.53 225.093 266.858 225.421C267.185 225.748 267.369 226.193 267.369 226.656C267.369 227.12 267.185 227.564 266.858 227.892C266.53 228.219 266.086 228.403 265.622 228.403H193.3C192.837 228.403 192.393 228.219 192.065 227.892C191.738 227.564 191.553 227.12 191.553 226.656C191.553 226.193 191.738 225.748 192.065 225.421C192.393 225.093 192.837 224.909 193.3 224.909Z" fill="#073341"/>
<path opacity="0.2" d="M193.3 224.909H195.378C195.433 224.63 195.583 224.378 195.803 224.198C196.022 224.017 196.298 223.918 196.582 223.918H198.235C198.519 223.918 198.795 224.017 199.015 224.198C199.234 224.378 199.384 224.63 199.439 224.909H200.732C200.787 224.63 200.937 224.378 201.156 224.198C201.376 224.017 201.651 223.918 201.936 223.918H203.588C203.873 223.918 204.148 224.017 204.368 224.198C204.588 224.378 204.738 224.63 204.792 224.909H206.085C206.14 224.63 206.29 224.379 206.509 224.198C206.729 224.017 207.005 223.918 207.289 223.918H208.942C209.226 223.918 209.502 224.017 209.722 224.198C209.941 224.379 210.091 224.63 210.146 224.909H211.439C211.493 224.63 211.643 224.378 211.863 224.198C212.082 224.017 212.358 223.918 212.643 223.918H214.297C214.581 223.918 214.857 224.017 215.076 224.198C215.296 224.378 215.446 224.63 215.501 224.909H216.794C216.848 224.63 216.998 224.378 217.218 224.198C217.438 224.017 217.713 223.918 217.998 223.918H219.65C219.935 223.918 220.21 224.017 220.43 224.198C220.649 224.378 220.799 224.63 220.854 224.909H221.788C221.843 224.63 221.993 224.378 222.213 224.198C222.432 224.017 222.708 223.918 222.992 223.918H237.664C237.949 223.918 238.225 224.017 238.444 224.198C238.664 224.378 238.814 224.63 238.868 224.909H240.066C240.12 224.63 240.27 224.378 240.49 224.198C240.71 224.017 240.985 223.918 241.27 223.918H242.922C243.207 223.918 243.482 224.017 243.702 224.198C243.922 224.378 244.071 224.63 244.126 224.909H245.419C245.474 224.63 245.624 224.378 245.844 224.198C246.063 224.017 246.339 223.918 246.623 223.918H248.276C248.56 223.918 248.836 224.017 249.055 224.198C249.275 224.378 249.425 224.63 249.48 224.909H250.77C250.825 224.63 250.975 224.379 251.195 224.198C251.414 224.017 251.69 223.918 251.974 223.918H253.627C253.911 223.918 254.187 224.017 254.407 224.198C254.626 224.379 254.776 224.63 254.831 224.909H256.124C256.178 224.63 256.328 224.378 256.548 224.198C256.767 224.017 257.043 223.918 257.328 223.918H258.98C259.265 223.918 259.54 224.017 259.76 224.198C259.979 224.378 260.129 224.63 260.184 224.909H265.622C266.086 224.909 266.53 225.093 266.858 225.421C267.185 225.748 267.369 226.193 267.369 226.656C267.369 227.12 267.185 227.564 266.858 227.892C266.53 228.219 266.086 228.403 265.622 228.403H193.3C192.837 228.403 192.393 228.219 192.065 227.892C191.738 227.564 191.553 227.12 191.553 226.656C191.553 226.193 191.738 225.748 192.065 225.421C192.393 225.093 192.837 224.909 193.3 224.909Z" fill="white"/>
<path d="M59.3502 229H349.176C349.279 229 349.378 228.959 349.451 228.886C349.524 228.813 349.565 228.714 349.565 228.611C349.565 228.508 349.524 228.409 349.451 228.336C349.378 228.263 349.279 228.221 349.176 228.221H59.3502C59.247 228.221 59.148 228.263 59.0749 228.336C59.0019 228.409 58.9609 228.508 58.9609 228.611C58.9609 228.714 59.0019 228.813 59.0749 228.886C59.148 228.959 59.247 229 59.3502 229Z" fill="#073341"/>
</g>
<defs>
<clipPath id="clip0_431_825">
<rect width="349.13" height="229" fill="white" transform="translate(0.435059)"/>
</clipPath>
</defs>
</svg>
