<svg width="404" height="229" viewBox="0 0 404 229" fill="none" xmlns="http://www.w3.org/2000/svg">
<g clip-path="url(#clip0_431_319)">
<path d="M122.74 112.875V115.601H135.32V99.5221H122.74V101.779C122.007 101.773 121.28 101.911 120.601 102.187C119.921 102.463 119.304 102.87 118.783 103.386C118.262 103.902 117.849 104.516 117.567 105.192C117.285 105.869 117.14 106.594 117.14 107.327C117.14 108.06 117.285 108.786 117.567 109.462C117.849 110.139 118.262 110.753 118.783 111.269C119.304 111.785 119.921 112.192 120.601 112.468C121.28 112.744 122.007 112.882 122.74 112.875ZM119.48 107.325C119.481 106.897 119.565 106.474 119.729 106.079C119.893 105.684 120.133 105.325 120.436 105.023C120.739 104.72 121.098 104.481 121.493 104.317C121.888 104.154 122.312 104.07 122.74 104.07V110.582C122.312 110.582 121.888 110.498 121.493 110.334C121.097 110.171 120.738 109.931 120.435 109.628C120.133 109.326 119.893 108.967 119.729 108.572C119.565 108.176 119.48 107.753 119.48 107.325Z" fill="#C1D8ED"/>
<path d="M400.685 229H5.78796C6.62118 217.858 18.2258 208.406 29.6009 205.602C46.2396 201.506 63.8479 212.77 80.4495 208.534C89.8815 206.131 97.3068 199.125 105.109 193.309C134.546 171.362 167.505 164.876 202.341 176.491C220.548 182.56 237.139 193.175 255.79 197.686C279.909 203.523 305.13 198.684 329.933 197.885C354.086 197.108 388.696 206.952 400.685 229Z" fill="#F3F5FD"/>
<path d="M257.653 154.724L254.895 155.45L274.238 228.999L276.996 228.273L257.653 154.724Z" fill="#94C28D"/>
<path d="M223.37 154.865L211.836 228.414L214.653 228.856L226.188 155.307L223.37 154.865Z" fill="#94C28D"/>
<path d="M260.241 84.5361C260.241 84.5361 283.8 83.0483 283.8 103.631C283.8 124.214 280.33 152.981 262.969 156.205C245.608 159.429 219.962 158.456 214.008 157.447C206.693 156.207 203.504 139.237 213.248 138.102C240.898 134.877 227.507 86.7681 260.241 84.5361Z" fill="#94C28D"/>
<path d="M252.22 74.1549C252.22 74.1549 248.545 72.2061 249.366 62.198L241.771 60.792C241.771 60.792 242.624 69.7654 238.782 72.6144L252.22 74.1549Z" fill="#E98862"/>
<g opacity="0.15">
<path opacity="0.15" d="M240.338 70.736L246.646 65.9097L241.691 65.8583C241.548 67.5543 241.089 69.2085 240.338 70.736Z" fill="black"/>
</g>
<path d="M253.673 58.3171C253.148 61.3534 251.491 64.229 248.812 65.2091C245.632 66.3736 243.277 66.4525 239.611 66.4525C234.609 66.4525 234.774 61.235 234.633 55.9776C234.491 50.6988 234.912 45.0365 236.889 43.197C240.834 39.5257 252.419 41.851 253.828 47.992C254.557 51.1684 254.173 55.4267 253.673 58.3171Z" fill="#E98862"/>
<path d="M231.952 46.2476C231.952 46.2476 229.903 45.7898 230.464 43.747C230.836 42.3919 232.572 42.6927 232.572 42.6927C232.572 42.6927 230.928 42.3919 230.928 40.9569C230.928 40.0538 231.623 38.5214 233.719 39.3969C236.178 40.4241 238.982 40.2919 241.115 39.9336C242.322 39.6694 243.546 39.4965 244.778 39.4164H244.785C246.201 39.3916 247.614 39.5805 248.974 39.9768C252.786 41.1176 258.555 44.535 257.329 52.284C255.96 60.9318 251.902 64.239 250.117 65.2998C250.011 65.3635 249.892 65.4023 249.769 65.4133C249.647 65.4244 249.523 65.4073 249.408 65.3635C249.292 65.3197 249.188 65.2502 249.104 65.1604C249.019 65.0706 248.956 64.9627 248.92 64.845C248.414 63.2242 247.541 59.146 247.785 50.7369C236.067 50.1622 232.697 49.9878 232.697 49.9878C232.697 49.9878 229.937 50.0914 229.937 48.0761C229.937 46.0608 231.952 46.2476 231.952 46.2476Z" fill="#0F1011"/>
<path d="M241.781 55.9781C242.162 55.9781 242.47 55.6697 242.47 55.2894C242.47 54.909 242.162 54.6006 241.781 54.6006C241.401 54.6006 241.093 54.909 241.093 55.2894C241.093 55.6697 241.401 55.9781 241.781 55.9781Z" fill="#0F1011"/>
<path d="M236.348 55.5327C236.729 55.5327 237.037 55.2244 237.037 54.844C237.037 54.4636 236.729 54.1553 236.348 54.1553C235.968 54.1553 235.66 54.4636 235.66 54.844C235.66 55.2244 235.968 55.5327 236.348 55.5327Z" fill="#0F1011"/>
<path d="M235.157 53.3772C235.073 53.3745 234.994 53.3395 234.935 53.2796C234.877 53.2196 234.844 53.1393 234.843 53.0556C234.843 52.9719 234.875 52.8912 234.933 52.8305C234.99 52.7699 235.069 52.734 235.153 52.7303L236.978 52.7075C237.063 52.7089 237.144 52.7427 237.205 52.8021C237.265 52.8615 237.301 52.942 237.305 53.0269C237.305 53.0694 237.297 53.1116 237.282 53.151C237.266 53.1905 237.243 53.2265 237.213 53.2569C237.183 53.2873 237.148 53.3116 237.109 53.3283C237.07 53.345 237.028 53.3539 236.985 53.3544L235.161 53.3772H235.157Z" fill="#0F1011"/>
<path d="M243.268 54.0426C243.243 54.0427 243.217 54.0396 243.192 54.0336L241.393 53.6006C241.351 53.5911 241.312 53.5734 241.277 53.5485C241.242 53.5236 241.213 53.492 241.19 53.4556C241.167 53.4192 241.152 53.3787 241.145 53.3364C241.139 53.294 241.14 53.2508 241.15 53.2091C241.16 53.1675 241.179 53.1282 241.204 53.0936C241.229 53.0591 241.261 53.0299 241.298 53.0078C241.335 52.9856 241.375 52.971 241.418 52.9647C241.46 52.9585 241.503 52.9607 241.545 52.9713L243.343 53.4043C243.42 53.4229 243.488 53.469 243.533 53.5339C243.578 53.5989 243.598 53.6781 243.589 53.7568C243.58 53.8354 243.542 53.9079 243.483 53.9605C243.424 54.0132 243.348 54.0424 243.268 54.0426Z" fill="#0F1011"/>
<path d="M245.365 56.9748C245.313 57.7403 245.565 58.4953 246.065 59.0767C246.566 59.658 247.275 60.0189 248.04 60.0814C248.805 60.1439 249.563 59.9028 250.152 59.4104C250.74 58.918 251.111 58.2138 251.184 57.4501C251.222 57.0667 251.183 56.6795 251.068 56.3117C250.953 55.9439 250.766 55.6029 250.517 55.309C250.267 55.0152 249.961 54.7746 249.617 54.6014C249.273 54.4283 248.897 54.3262 248.513 54.3012C246.432 54.2356 245.496 55.3673 245.365 56.9748Z" fill="#E98862"/>
<g opacity="0.15">
<path opacity="0.15" d="M238.724 59.1094C238.781 59.1095 238.836 59.0891 238.879 59.0519C238.923 59.0148 238.951 58.9634 238.96 58.9071C238.968 58.8508 238.956 58.7933 238.926 58.7452C238.895 58.697 238.849 58.6613 238.794 58.6446L237.393 58.2144L238.373 56.0328C238.398 55.9754 238.399 55.9106 238.377 55.8523C238.354 55.794 238.31 55.7469 238.253 55.7213C238.196 55.6956 238.131 55.6935 238.072 55.7153C238.014 55.7372 237.966 55.7812 237.94 55.8379L236.85 58.2648C236.836 58.2956 236.829 58.3289 236.829 58.3627C236.829 58.3964 236.836 58.4298 236.85 58.4606C236.864 58.4913 236.884 58.5188 236.909 58.5411C236.935 58.5634 236.964 58.58 236.997 58.5899L238.654 59.099C238.677 59.1059 238.701 59.1094 238.724 59.1094Z" fill="black"/>
</g>
<path d="M241.463 60.7136C241.463 60.7136 238.921 60.9817 237.138 60.359C237.138 60.359 237.152 62.033 239.164 62.198C241.175 62.3629 241.463 60.7136 241.463 60.7136Z" fill="white"/>
<path d="M215.207 214.399L205.255 215.166L206.151 226.792L216.103 226.025L215.207 214.399Z" fill="#E98862"/>
<path d="M193.503 228.548C193.235 228.547 192.969 228.491 192.724 228.382C192.478 228.274 192.258 228.116 192.076 227.919C191.894 227.721 191.755 227.488 191.667 227.235C191.579 226.981 191.545 226.712 191.566 226.444C191.595 226.073 191.729 225.718 191.953 225.421C192.177 225.124 192.481 224.897 192.83 224.767L204.447 220.876C204.672 220.802 204.911 220.777 205.146 220.803C205.382 220.829 205.609 220.906 205.813 221.028C207.41 222.136 209.32 222.703 211.263 222.644C212.776 222.537 214.229 222.006 215.456 221.113C215.563 221.024 215.694 220.968 215.832 220.951C215.971 220.934 216.111 220.957 216.237 221.017C216.363 221.077 216.469 221.171 216.544 221.289C216.618 221.407 216.657 221.544 216.657 221.683V227.364C216.657 227.532 216.624 227.698 216.559 227.852C216.495 228.007 216.401 228.148 216.282 228.266C216.163 228.384 216.022 228.478 215.867 228.542C215.712 228.605 215.546 228.638 215.379 228.637L193.503 228.548Z" fill="#B7F2A2"/>
<path d="M179.971 213.955L178.016 225.581L187.859 227.237L189.814 215.611L179.971 213.955Z" fill="#E98862"/>
<path d="M239.08 125.64V125.609H191.053C188.858 125.609 186.742 126.43 185.122 127.91C183.501 129.39 182.493 131.423 182.295 133.609L174.639 217.919L192.154 219.51L196.269 174.188L200.649 220.761L218.158 219.114L211.851 152.04H234.76V151.989H247.883C250.261 151.989 252.615 151.52 254.811 150.611C257.007 149.701 259.003 148.367 260.684 146.686C262.365 145.005 263.699 143.01 264.608 140.813C265.518 138.617 265.986 136.263 265.986 133.885V125.64H239.08Z" fill="#073341"/>
<path d="M166.742 228.548C166.473 228.547 166.208 228.491 165.962 228.382C165.717 228.274 165.496 228.116 165.314 227.919C165.133 227.721 164.994 227.488 164.906 227.235C164.818 226.981 164.783 226.712 164.804 226.444C164.833 226.073 164.968 225.718 165.191 225.421C165.415 225.124 165.719 224.897 166.068 224.767L177.686 220.876C177.911 220.801 178.149 220.776 178.385 220.802C178.621 220.829 178.848 220.905 179.051 221.028C180.648 222.136 182.559 222.702 184.502 222.644C186.015 222.536 187.468 222.006 188.694 221.112C188.802 221.024 188.932 220.968 189.071 220.951C189.209 220.934 189.35 220.957 189.475 221.017C189.601 221.076 189.708 221.171 189.782 221.289C189.857 221.407 189.896 221.543 189.895 221.683V227.364C189.895 227.531 189.862 227.697 189.798 227.852C189.734 228.007 189.64 228.147 189.521 228.265C189.402 228.384 189.261 228.477 189.106 228.541C188.951 228.605 188.785 228.637 188.617 228.636L166.742 228.548Z" fill="#B7F2A2"/>
<path d="M278.609 84.5997C278.609 84.5997 278.343 78.8961 282.434 78.9526C285.015 78.9878 297.192 77.6997 297.44 78.8019C298.052 81.5288 286.923 82.8596 286.06 85.4838L278.609 84.5997Z" fill="#E98862"/>
<path d="M281.003 79.2207C281.003 79.2207 286.564 77.038 287.976 77.2866C289.227 77.5072 286.774 79.667 286.774 79.667L281.003 79.2207Z" fill="#E98862"/>
<path d="M192.844 93.7561C192.844 93.7561 191.327 88.252 187.455 89.5734C185.013 90.4076 173.036 92.959 173.143 94.0841C173.407 96.866 184.4 94.6796 186.034 96.9069L192.844 93.7561Z" fill="#E98862"/>
<path d="M188.899 89.3847C188.899 89.3847 182.936 89.0344 181.67 89.7093C180.549 90.3068 183.551 91.5992 183.551 91.5992L188.899 89.3847Z" fill="#E98862"/>
<path d="M277.721 82.2589L275.065 95.3061L266.652 78.0362L266.608 78.0576C266.121 76.7878 265.37 75.6361 264.404 74.6791C262.237 72.5117 258.482 71.1048 253.909 71.1C253.567 73.7665 237.373 73.776 237.25 71.1618C236.632 71.1713 236.152 71.1856 235.852 71.1951C230.523 71.4251 227.789 73.6296 226.508 76.9549L210.399 102.667L190.779 89.0211L184.861 97.5291L208.945 114.279C209.521 114.679 210.172 114.959 210.859 115.1C211.546 115.242 212.255 115.242 212.942 115.102C213.63 114.961 214.281 114.682 214.857 114.283C215.434 113.883 215.923 113.37 216.295 112.776L226.675 96.2096C226.935 98.5387 227.145 100.835 227.169 103.004C227.35 118.437 223.186 121.346 225.24 126.061C227.231 130.638 266.363 132.539 266.886 124.488C267.219 119.364 262.703 114.891 262.703 104.905C262.703 102.27 263.346 99.4389 264.151 96.5666L272.437 113.577C272.911 114.551 273.678 115.352 274.63 115.867C275.583 116.383 276.673 116.587 277.748 116.45C278.823 116.314 279.827 115.844 280.621 115.107C281.415 114.37 281.958 113.403 282.173 112.341L287.877 84.3265L277.721 82.2589Z" fill="#B7F2A2"/>
<path d="M237.251 71.1618C237.374 73.776 238.8 77.6213 243.182 77.9065C249.034 78.2962 253.568 73.7665 253.91 71.1H253.891C248.14 71.1 240.611 71.1095 237.251 71.1618Z" fill="#E98862"/>
<path d="M360.829 154.724L358.071 155.449L377.414 228.998L380.172 228.273L360.829 154.724Z" fill="#94C28D"/>
<path d="M326.546 154.866L315.011 228.414L317.829 228.856L329.363 155.307L326.546 154.866Z" fill="#94C28D"/>
<path d="M363.417 84.5361C363.417 84.5361 386.976 83.0483 386.976 103.631C386.976 124.214 383.506 152.981 366.145 156.205C348.784 159.429 323.139 158.456 317.185 157.447C309.869 156.207 306.68 139.237 316.424 138.102C344.074 134.877 330.683 86.7681 363.417 84.5361Z" fill="#94C28D"/>
<path d="M368.714 54.844C368.787 47.7766 365.994 43.3971 362.206 40.9925C358.47 38.6198 346.751 36.5546 342.309 45.1681C339.409 50.7882 340.554 52.7973 339.733 61.7997C338.912 70.802 335.756 71.746 332.556 82.6572C330.046 91.2161 344.106 95.76 356.279 95.3674C368.452 94.9748 376.171 92.2779 376.877 84.5361C377.892 73.4238 368.571 68.694 368.714 54.844Z" fill="#0F1011"/>
<path d="M361.46 74.3858C361.46 74.3858 357.803 72.4033 358.715 62.4033L351.135 60.9256C351.135 60.9256 351.906 69.9061 348.038 72.7194L361.46 74.3858Z" fill="#E98862"/>
<g opacity="0.15">
<path opacity="0.15" d="M349.611 70.8562L355.964 66.0879L351.01 65.9928C350.85 67.6869 350.376 69.3362 349.611 70.8562Z" fill="black"/>
</g>
<path d="M363.059 58.5581C362.505 61.5896 360.822 64.4495 358.135 65.4058C355.205 66.5379 352.042 66.9358 348.923 66.5646C340.617 65.807 342.435 46.9206 346.415 43.2854C350.395 39.6503 361.957 42.0815 363.309 48.2353C364.008 51.4199 363.585 55.6744 363.059 58.5581Z" fill="#E98862"/>
<path d="M351.196 56.1121C351.576 56.1121 351.885 55.8038 351.885 55.4234C351.885 55.043 351.576 54.7347 351.196 54.7347C350.816 54.7347 350.507 55.043 350.507 55.4234C350.507 55.8038 350.816 56.1121 351.196 56.1121Z" fill="#0F1011"/>
<path d="M345.766 55.6168C346.147 55.6168 346.455 55.3085 346.455 54.9281C346.455 54.5477 346.147 54.2394 345.766 54.2394C345.386 54.2394 345.078 54.5477 345.078 54.9281C345.078 55.3085 345.386 55.6168 345.766 55.6168Z" fill="#0F1011"/>
<path d="M344.59 53.4494C344.506 53.4462 344.427 53.4107 344.369 53.3504C344.311 53.2901 344.279 53.2097 344.279 53.126C344.279 53.0423 344.311 52.9618 344.369 52.9015C344.427 52.8412 344.506 52.8057 344.59 52.8025L346.415 52.7964C346.498 52.7996 346.578 52.835 346.636 52.8954C346.694 52.9557 346.726 53.0361 346.726 53.1198C346.726 53.2035 346.694 53.284 346.636 53.3443C346.578 53.4046 346.498 53.44 346.415 53.4433L344.59 53.4494Z" fill="#0F1011"/>
<path d="M352.696 54.1895C352.67 54.1894 352.643 54.1861 352.618 54.1795L350.823 53.7303C350.74 53.7095 350.668 53.6564 350.624 53.5827C350.58 53.509 350.566 53.4208 350.587 53.3375C350.608 53.2542 350.661 53.1825 350.735 53.1384C350.809 53.0942 350.897 53.0811 350.98 53.102L352.775 53.5516C352.852 53.5707 352.919 53.6171 352.964 53.6823C353.009 53.7475 353.028 53.8268 353.018 53.9053C353.009 53.9838 352.971 54.0561 352.911 54.1084C352.852 54.1608 352.776 54.1896 352.696 54.1895Z" fill="#0F1011"/>
<path d="M350.828 60.8443C350.828 60.8443 348.283 61.0891 346.507 60.4503C346.507 60.4503 346.507 62.1248 348.516 62.3078C350.525 62.4907 350.828 60.8443 350.828 60.8443Z" fill="white"/>
<path d="M357.538 50.6418C356.968 57.7541 357.68 64.911 359.64 71.7716C359.64 71.7716 365.534 61.8377 366.516 53.5264C367.435 45.7342 361.728 41.0767 357.854 40.1731C343.128 36.7381 342.106 47.4791 342.106 47.4791C343.056 51.1428 359.133 53.4162 359.133 53.4162" fill="#0F1011"/>
<path d="M354.646 58.4235C354.576 59.1947 354.815 59.9621 355.31 60.5571C355.806 61.1521 356.517 61.5259 357.288 61.5962C358.06 61.6666 358.827 61.4277 359.422 60.9322C360.017 60.4367 360.391 59.7251 360.461 58.954C360.503 58.571 360.467 58.1835 360.355 57.8147C360.244 57.4458 360.06 57.1032 359.813 56.8071C359.567 56.5111 359.263 56.2677 358.92 56.0915C358.578 55.9152 358.203 55.8097 357.819 55.7813C355.739 55.6943 354.792 56.8175 354.646 58.4235Z" fill="#E98862"/>
<g opacity="0.15">
<path opacity="0.15" d="M348.106 59.2149C348.162 59.2148 348.217 59.1945 348.26 59.1576C348.303 59.1208 348.331 59.0698 348.34 59.0138C348.349 58.9579 348.337 58.9007 348.307 58.8525C348.278 58.8043 348.232 58.7683 348.178 58.751L346.781 58.308L347.779 56.1349C347.803 56.078 347.804 56.0139 347.782 55.9562C347.76 55.8985 347.716 55.8517 347.66 55.8259C347.604 55.8 347.539 55.797 347.481 55.8177C347.423 55.8383 347.375 55.8808 347.347 55.9362L346.235 58.3537C346.221 58.3842 346.214 58.4174 346.213 58.451C346.213 58.4846 346.22 58.518 346.233 58.5488C346.247 58.5796 346.266 58.6072 346.291 58.6298C346.316 58.6524 346.346 58.6694 346.378 58.6797L348.031 59.2026C348.055 59.2106 348.08 59.2148 348.106 59.2149Z" fill="black"/>
</g>
<path d="M295.381 102.822C295.381 102.822 283.598 100.025 278.588 104.967C278.46 105.093 278.374 105.254 278.34 105.43C278.306 105.606 278.326 105.788 278.397 105.953C278.467 106.117 278.586 106.256 278.738 106.352C278.889 106.448 279.066 106.497 279.245 106.491C282.057 106.39 285.887 106.617 288.212 107.664C287.399 108.044 286.571 108.531 286.756 108.852C287.271 109.744 295.386 109.303 295.386 109.303L295.381 102.822Z" fill="#E98862"/>
<path d="M323.993 214.575L314.041 215.343L314.938 226.969L324.89 226.201L323.993 214.575Z" fill="#E98862"/>
<path d="M302.291 228.724C302.034 228.723 301.781 228.672 301.544 228.572C301.308 228.473 301.093 228.329 300.913 228.147C300.733 227.964 300.59 227.749 300.493 227.511C300.396 227.274 300.346 227.02 300.347 226.764C300.347 226.716 300.347 226.669 300.353 226.621C300.382 226.25 300.517 225.895 300.741 225.598C300.964 225.301 301.268 225.074 301.617 224.944L313.235 221.052C313.46 220.978 313.698 220.953 313.934 220.979C314.17 221.005 314.397 221.082 314.6 221.204C316.197 222.313 318.108 222.879 320.051 222.821C321.564 222.713 323.017 222.182 324.243 221.289C324.351 221.2 324.482 221.145 324.62 221.128C324.758 221.111 324.898 221.134 325.024 221.193C325.15 221.253 325.257 221.347 325.331 221.465C325.405 221.583 325.445 221.72 325.445 221.859V227.54C325.445 227.877 325.31 228.201 325.072 228.44C324.833 228.679 324.509 228.813 324.172 228.813H324.166L302.291 228.724Z" fill="#B7F2A2"/>
<path d="M279.252 214.131L277.297 225.757L287.14 227.412L289.096 215.787L279.252 214.131Z" fill="#E98862"/>
<path d="M274.167 219.53L291.33 132.365C291.82 130.482 292.921 128.813 294.46 127.623C296 126.432 297.891 125.785 299.838 125.785H347.867V125.816H374.774V134.061C374.774 136.439 374.305 138.793 373.396 140.989C372.486 143.186 371.153 145.181 369.472 146.862C367.791 148.543 365.795 149.877 363.599 150.787C361.402 151.697 359.048 152.165 356.671 152.165H343.548V152.217H320.638L326.946 219.289L309.437 220.936L303.812 158.454L291.188 222.053L274.167 219.53Z" fill="#073341"/>
<path d="M317.74 115.381H335.005C333.986 120.865 332.692 123.169 334.028 126.236C336.019 130.813 375.151 132.714 375.674 124.663C376.007 119.539 371.492 115.061 371.492 105.08C371.492 95.0984 380.679 82.3411 373.193 74.855C371.026 72.6875 367.271 71.2806 362.698 71.2759C362.356 73.9424 346.162 73.9519 346.039 71.3377C345.421 71.3472 344.941 71.3614 344.641 71.3709C339.061 71.6114 336.326 74.0165 335.126 77.6065L322.435 100.322L294.544 102.118L295.164 111.128L317.741 110.569L317.74 115.381ZM335.957 103.179C335.964 103.815 335.962 104.422 335.957 105.017H331.686L335.631 97.954C335.809 99.7421 335.939 101.499 335.958 103.179H335.957Z" fill="#B7F2A2"/>
<path d="M346.038 71.3377C346.162 73.9519 347.588 77.7971 351.97 78.0823C357.821 78.4721 362.356 73.9424 362.698 71.2759H362.679C356.928 71.2759 349.399 71.2854 346.038 71.3377Z" fill="#E98862"/>
<path d="M266.023 228.724C265.767 228.723 265.513 228.672 265.276 228.572C265.04 228.473 264.825 228.328 264.645 228.146C264.464 227.964 264.322 227.748 264.225 227.511C264.128 227.273 264.079 227.019 264.08 226.763C264.08 226.715 264.082 226.668 264.086 226.62C264.115 226.249 264.249 225.894 264.473 225.597C264.697 225.3 265.001 225.073 265.349 224.943L276.967 221.051C277.192 220.977 277.431 220.952 277.666 220.978C277.902 221.005 278.129 221.081 278.332 221.203C279.929 222.312 281.84 222.878 283.783 222.82C285.296 222.712 286.749 222.181 287.976 221.288C288.083 221.199 288.214 221.144 288.352 221.127C288.491 221.11 288.631 221.133 288.757 221.192C288.883 221.252 288.989 221.346 289.063 221.464C289.138 221.582 289.177 221.719 289.177 221.858V227.539C289.177 227.876 289.043 228.2 288.804 228.439C288.565 228.678 288.241 228.812 287.904 228.812H287.899L266.023 228.724Z" fill="#B7F2A2"/>
<path d="M317.743 108.581C317.743 108.581 305.96 105.784 300.95 110.726C300.822 110.852 300.736 111.013 300.702 111.189C300.668 111.365 300.687 111.547 300.758 111.711C300.829 111.876 300.948 112.015 301.099 112.111C301.251 112.207 301.427 112.255 301.606 112.249C304.419 112.148 308.249 112.376 310.574 113.422C309.76 113.803 308.933 114.289 309.118 114.611C309.632 115.502 317.748 115.062 317.748 115.062L317.743 108.581Z" fill="#E98862"/>
<path d="M280.707 4.72612L276.153 7.35553L285.077 22.8118L289.631 20.1824L280.707 4.72612Z" fill="#DEE8F5"/>
<path d="M277.302 4.84531H272.044V22.6927H277.302V4.84531Z" fill="#DEE8F5"/>
<path d="M307.931 0H302.672V22.6927H307.931V0Z" fill="#DEE8F5"/>
<path d="M302.523 4.84531H297.264V22.6927H302.523V4.84531Z" fill="#0CBC8B"/>
<path d="M313.191 2.55145H307.932V22.6927H313.191V2.55145Z" fill="#0CBC8B"/>
<path d="M297.181 1.9231H288.782V22.6927H297.181V1.9231Z" fill="#C1D8ED"/>
<path d="M321.615 16.7622C321.615 16.7622 321.59 7.88537 326.049 6.03119C330.508 4.17701 323.832 16.7622 323.832 16.7622H321.615Z" fill="#8DDBE0"/>
<path d="M323.834 16.7622C323.834 16.7622 326.162 0.142578 321.405 0.142578C316.647 0.142578 321.616 16.7622 321.616 16.7622" fill="#8DDBE0"/>
<path d="M322.407 17.4942C322.407 17.4942 320.173 2.68311 316.192 3.87139C312.211 5.05966 320.842 17.9614 320.842 17.9614L322.407 17.4942Z" fill="#8DDBE0"/>
<path d="M326.797 12.3076H316.412V22.6927H326.797V12.3076Z" fill="#DEE8F5"/>
<path d="M331.028 22.6927H269.414V25.0003H331.028V22.6927Z" fill="#C1D8ED"/>
<path d="M317.345 22.6927H269.414V25.0003H317.345V22.6927Z" fill="#DEE8F5"/>
<path d="M53.5688 154.725L34.223 228.273L36.9811 228.998L56.3268 155.45L53.5688 154.725Z" fill="#94C28D"/>
<path d="M87.8509 154.866L85.0334 155.308L96.5654 228.857L99.3828 228.415L87.8509 154.866Z" fill="#94C28D"/>
<path d="M50.9788 84.5361C50.9788 84.5361 27.4197 83.0483 27.4197 103.631C27.4197 124.214 30.8918 152.981 48.251 156.205C65.6103 159.429 91.2575 158.456 97.2117 157.447C104.527 156.207 107.716 139.237 97.9721 138.102C70.3196 134.877 83.7129 86.7681 50.9788 84.5361Z" fill="#94C28D"/>
<path d="M58.8596 74.0351C58.8596 74.0351 62.5352 72.0863 61.7143 62.0782L69.3083 60.6699C69.3083 60.6699 68.4552 69.6432 72.2966 72.4917L58.8596 74.0351Z" fill="#E98862"/>
<g opacity="0.15">
<path opacity="0.15" d="M70.7409 70.6162L64.4321 65.7899L69.3868 65.7386C69.5303 67.4346 69.9896 69.0889 70.7409 70.6162Z" fill="black"/>
</g>
<path d="M57.406 58.1973C57.9317 61.2336 59.5886 64.1092 62.267 65.0893C65.1866 66.2483 68.3455 66.6751 71.468 66.3327C79.7807 65.6511 78.1366 46.75 74.1896 43.0772C70.2427 39.4045 58.6599 41.7307 57.2511 47.8717C56.5224 51.0482 56.9055 55.3069 57.406 58.1973Z" fill="#E98862"/>
<path d="M76.9318 43.7284C76.6838 43.3347 76.3361 43.0135 75.9241 42.7973C72.2324 40.7896 65.3913 40.0952 62.1054 41.0781C58.2935 42.2188 53.5138 45.4143 54.7382 53.1633C54.79 53.4894 54.8456 53.8035 54.9031 54.1139C53.6992 53.9081 52.4618 54.0377 51.3267 54.4884C50.1915 54.939 49.2022 55.6934 48.4673 56.6689C47.7323 57.6444 47.28 58.8034 47.1599 60.0188C47.0398 61.2343 47.2566 62.4594 47.7864 63.5598C48.3163 64.6603 49.1388 65.5937 50.1638 66.2578C51.1889 66.9219 52.3769 67.2911 53.5978 67.3249C54.8187 67.3587 56.0254 67.0558 57.0856 66.4495C58.1458 65.8431 59.0187 64.9567 59.6086 63.8872C60.1742 64.3757 60.785 64.8091 61.4329 65.1815C61.8878 65.4515 61.998 65.2314 62.1558 64.7266C62.7072 62.9627 63.249 55.9866 62.8165 50.9213L71.7742 50.6114L73.3351 46.171L74.6142 50.6114H77.6652C78.0744 48.2058 78.495 45.4785 76.9318 43.7284Z" fill="#0F1011"/>
<path d="M69.2972 55.8583C69.6776 55.8583 69.986 55.5499 69.986 55.1696C69.986 54.7892 69.6776 54.4808 69.2972 54.4808C68.9169 54.4808 68.6085 54.7892 68.6085 55.1696C68.6085 55.5499 68.9169 55.8583 69.2972 55.8583Z" fill="#0F1011"/>
<path d="M74.7311 55.4124C75.1114 55.4124 75.4198 55.1041 75.4198 54.7237C75.4198 54.3434 75.1114 54.035 74.7311 54.035C74.3507 54.035 74.0424 54.3434 74.0424 54.7237C74.0424 55.1041 74.3507 55.4124 74.7311 55.4124Z" fill="#0F1011"/>
<path d="M75.9241 53.256C76.0077 53.2533 76.0871 53.2183 76.1456 53.1583C76.204 53.0984 76.2369 53.0181 76.2374 52.9344C76.2379 52.8506 76.2059 52.77 76.1482 52.7093C76.0905 52.6487 76.0115 52.6127 75.9279 52.6091L74.1036 52.5863C74.0186 52.5875 73.9372 52.6214 73.8763 52.6808C73.8154 52.7402 73.7795 52.8207 73.7762 52.9057C73.7756 52.9482 73.7834 52.9903 73.7991 53.0298C73.8149 53.0693 73.8383 53.1052 73.8679 53.1356C73.8976 53.1661 73.933 53.1903 73.972 53.2071C74.0111 53.2238 74.0531 53.2327 74.0956 53.2332L75.9203 53.256H75.9241Z" fill="#0F1011"/>
<path d="M67.811 53.9214C67.8365 53.9214 67.8618 53.9184 67.8866 53.9124L69.6856 53.4798C69.7674 53.4582 69.8375 53.4055 69.8808 53.3329C69.9242 53.2602 69.9374 53.1735 69.9177 53.0913C69.8979 53.009 69.8468 52.9378 69.7751 52.8928C69.7035 52.8478 69.6171 52.8326 69.5345 52.8505L67.7354 53.2831C67.6584 53.3016 67.5909 53.3478 67.5457 53.4128C67.5005 53.4778 67.4806 53.5571 67.4899 53.6358C67.4992 53.7144 67.537 53.7869 67.5962 53.8396C67.6554 53.8922 67.7318 53.9213 67.811 53.9214Z" fill="#0F1011"/>
<path d="M65.7145 56.8545C65.7514 57.2397 65.7115 57.6283 65.5969 57.9979C65.4824 58.3675 65.2955 58.7106 65.0472 59.0073C64.7989 59.304 64.494 59.5484 64.1504 59.7263C63.8069 59.9042 63.4313 60.012 63.0457 60.0435C62.6601 60.075 62.272 60.0296 61.9041 59.9098C61.5362 59.79 61.1958 59.5983 60.9026 59.3458C60.6094 59.0933 60.3694 58.7851 60.1963 58.439C60.0233 58.0929 59.9208 57.7159 59.8948 57.3298C59.8569 56.9465 59.8965 56.5594 60.0112 56.1916C60.126 55.8239 60.3136 55.483 60.5628 55.1892C60.8121 54.8955 61.1179 54.6548 61.462 54.4817C61.8061 54.3086 62.1816 54.2064 62.566 54.1814C64.6469 54.1153 65.5828 55.2475 65.7145 56.8545Z" fill="#E98862"/>
<g opacity="0.15">
<path opacity="0.15" d="M72.3545 58.9896C72.2976 58.9897 72.2425 58.9693 72.1994 58.9321C72.1562 58.895 72.1278 58.8436 72.1193 58.7873C72.1109 58.731 72.1229 58.6735 72.1532 58.6254C72.1836 58.5772 72.2302 58.5415 72.2846 58.5248L73.6854 58.0946L72.7058 55.9125C72.6918 55.8839 72.6838 55.8527 72.6821 55.8209C72.6805 55.7891 72.6852 55.7573 72.6961 55.7274C72.7069 55.6975 72.7237 55.6701 72.7454 55.6467C72.767 55.6234 72.7932 55.6047 72.8222 55.5917C72.8513 55.5786 72.8826 55.5716 72.9145 55.5709C72.9463 55.5702 72.9779 55.576 73.0075 55.5878C73.0371 55.5996 73.064 55.6172 73.0866 55.6396C73.1092 55.6619 73.1271 55.6886 73.1392 55.7181L74.2296 58.1455C74.2434 58.1762 74.2505 58.2096 74.2505 58.2433C74.2504 58.277 74.2431 58.3104 74.2292 58.3411C74.2153 58.3718 74.195 58.3992 74.1696 58.4214C74.1443 58.4437 74.1145 58.4603 74.0823 58.4701L72.4244 58.9792C72.4017 58.9861 72.3782 58.9897 72.3545 58.9896Z" fill="black"/>
</g>
<path d="M69.6163 60.5934C69.6163 60.5934 72.1583 60.8614 73.9416 60.2388C73.9416 60.2388 73.9279 61.9133 71.9159 62.0782C69.9039 62.2431 69.6163 60.5934 69.6163 60.5934Z" fill="white"/>
<path d="M96.0158 214.401L95.1194 226.027L105.071 226.795L105.968 215.169L96.0158 214.401Z" fill="#E98862"/>
<path d="M117.717 228.548C117.985 228.547 118.25 228.491 118.496 228.382C118.741 228.274 118.962 228.116 119.144 227.919C119.326 227.721 119.465 227.488 119.553 227.235C119.64 226.981 119.675 226.712 119.654 226.444C119.625 226.073 119.491 225.718 119.267 225.421C119.043 225.124 118.739 224.897 118.391 224.767L106.773 220.876C106.548 220.802 106.309 220.777 106.073 220.803C105.838 220.829 105.611 220.906 105.408 221.028C103.81 222.136 101.9 222.703 99.9567 222.644C98.4434 222.537 96.9907 222.006 95.7644 221.113C95.6566 221.024 95.5259 220.968 95.3875 220.951C95.2492 220.935 95.1088 220.957 94.9829 221.017C94.8569 221.077 94.7506 221.171 94.6762 221.289C94.6018 221.407 94.5625 221.544 94.5629 221.683V227.364C94.5629 227.532 94.596 227.698 94.6603 227.852C94.7246 228.007 94.8188 228.148 94.9375 228.266C95.0563 228.384 95.1972 228.478 95.3523 228.542C95.5073 228.605 95.6734 228.638 95.841 228.637L117.717 228.548Z" fill="#B7F2A2"/>
<path d="M145.507 213.957L135.664 215.612L137.619 227.238L147.463 225.583L145.507 213.957Z" fill="#E98862"/>
<path d="M150.593 216.503L128.678 132.19C128.188 130.306 127.087 128.638 125.547 127.447C124.008 126.256 122.116 125.609 120.17 125.609H72.1406V125.64H45.2339V133.885C45.2339 138.687 47.1412 143.291 50.5362 146.686C53.9311 150.081 58.5357 151.989 63.337 151.989H76.4598V152.04H99.3697L93.0614 219.114L110.571 220.761L116.67 155.901L133.572 220.924L150.593 216.503Z" fill="#073341"/>
<path d="M158.738 228.548C159.006 228.547 159.271 228.491 159.517 228.382C159.762 228.274 159.983 228.116 160.165 227.919C160.347 227.721 160.486 227.488 160.573 227.235C160.661 226.981 160.696 226.712 160.675 226.444C160.646 226.073 160.512 225.718 160.288 225.421C160.064 225.124 159.76 224.897 159.411 224.767L147.795 220.876C147.57 220.802 147.331 220.777 147.096 220.803C146.86 220.829 146.633 220.906 146.429 221.028C144.832 222.136 142.922 222.703 140.979 222.644C139.466 222.537 138.013 222.006 136.786 221.113C136.679 221.024 136.548 220.968 136.41 220.951C136.271 220.934 136.131 220.957 136.005 221.017C135.879 221.077 135.773 221.171 135.698 221.289C135.624 221.407 135.585 221.544 135.585 221.683V227.364C135.585 227.532 135.618 227.698 135.683 227.852C135.747 228.007 135.841 228.148 135.96 228.266C136.079 228.384 136.22 228.478 136.375 228.542C136.53 228.605 136.696 228.638 136.863 228.637L158.738 228.548Z" fill="#B7F2A2"/>
<path d="M114 85.3431C114 85.3431 114.072 79.6342 118.152 79.9312C120.727 80.1185 132.959 79.551 133.141 80.6651C133.591 83.4219 122.403 84.0959 121.387 86.6645L114 85.3431Z" fill="#E98862"/>
<path d="M116.706 80.1143C116.706 80.1143 122.385 78.2634 123.781 78.5933C125.017 78.887 122.441 80.8985 122.441 80.8985L116.706 80.1143Z" fill="#E98862"/>
<path d="M96.6042 114.217C95.6823 114.216 94.7772 113.97 93.982 113.503C93.1869 113.037 92.5304 112.367 92.0802 111.562L74.9144 80.8353L83.961 75.7823L97.5724 100.148L113.798 81.8924L122.532 86.8033L100.477 112.48C99.9911 113.027 99.3944 113.464 98.7268 113.763C98.0592 114.063 97.3358 114.217 96.6042 114.217Z" fill="#B7F2A2"/>
<path d="M102.041 107.606C103.457 107.606 108.193 106.858 108.531 108.061C108.734 108.782 105.204 109.634 105.204 109.634" fill="#E98862"/>
<path d="M101.297 113.285C101.297 113.285 110.858 117.213 116.35 112.732C116.49 112.618 116.592 112.464 116.643 112.291C116.694 112.118 116.691 111.934 116.636 111.762C116.58 111.59 116.474 111.439 116.332 111.328C116.189 111.218 116.016 111.153 115.836 111.142C112.133 110.924 104.524 110.178 105.415 107.736H99.4432" fill="#E98862"/>
<path d="M102.268 104.841H84.0518C84.0456 104.247 84.0433 103.639 84.0518 103.003C84.2039 89.8224 91.1339 71.8748 75.3679 71.1951C75.0685 71.1856 74.5884 71.1713 73.9705 71.1618C73.8469 73.776 57.6532 73.7665 57.3109 71.1C52.7385 71.1048 48.9835 72.5117 46.8161 74.6791C39.33 82.1652 48.5177 94.9225 48.5177 104.904C48.5177 114.885 44.0023 119.363 44.335 124.487C44.8579 132.538 83.99 130.637 85.9816 126.06C87.3172 122.993 86.0229 120.689 85.0043 115.205H102.269L102.268 104.841Z" fill="#B7F2A2"/>
<path d="M73.9691 71.1618C73.8456 73.776 72.4196 77.6213 68.0373 77.9065C62.1862 78.2962 57.6518 73.7665 57.3096 71.1H57.3286C63.0798 71.1 70.6087 71.1095 73.9691 71.1618Z" fill="#E98862"/>
<path d="M17.2314 119.812H12.7678V228.637H17.2314V119.812Z" fill="#CFE7F1"/>
<path d="M390.681 119.812H386.218V228.637H390.681V119.812Z" fill="#CFE7F1"/>
<path d="M403.218 115.318H0.781982V121.455H403.218V115.318Z" fill="#CFE7F1"/>
<path d="M27.3693 92.0568L23.3682 91.1108L18.3519 112.328L22.353 113.274L27.3693 92.0568Z" fill="#F0F6FF"/>
<path d="M18.9676 89.4639L16.7465 89.8736L20.1818 108.496L22.403 108.086L18.9676 89.4639Z" fill="#C1D8ED"/>
<path d="M18.9662 89.4577L16.7473 89.8799L17.1382 91.934L19.3571 91.5117L18.9662 89.4577Z" fill="#DEE8F5"/>
<path d="M25.8429 94.1982L18.6447 112.47L19.878 112.956L27.0763 94.6841L25.8429 94.1982Z" fill="#0CBC8B"/>
<path d="M27.4202 102.192H16.5693V116.06H27.4202V102.192Z" fill="#DEE8F5"/>
<path d="M174.441 109.99H149.457V115.647H174.441V109.99Z" fill="#C1D8ED"/>
<path d="M165.915 109.99H139.495V115.647H165.915V109.99Z" fill="#DEE8F5"/>
<path opacity="0.62" d="M163.758 109.99H162.476V115.647H163.758V109.99Z" fill="#C1D8ED"/>
<path opacity="0.62" d="M161.193 109.99H159.911V115.647H161.193V109.99Z" fill="#C1D8ED"/>
<path d="M142.524 114.643C143.531 114.643 144.348 113.826 144.348 112.818C144.348 111.811 143.531 110.994 142.524 110.994C141.516 110.994 140.7 111.811 140.7 112.818C140.7 113.826 141.516 114.643 142.524 114.643Z" fill="#F3F5FD"/>
<path d="M151.494 109.996H176.478V104.339H151.494V109.996Z" fill="#C1D8ED"/>
<path d="M141.532 109.996H167.953V104.339H141.532V109.996Z" fill="#F3F5FD"/>
<path d="M143.689 109.996H144.972V104.339H143.689V109.996Z" fill="#DEE8F5"/>
<path d="M146.254 109.996H147.536V104.339H146.254V109.996Z" fill="#DEE8F5"/>
<path d="M164.924 108.992C165.931 108.992 166.748 108.175 166.748 107.167C166.748 106.16 165.931 105.343 164.924 105.343C163.916 105.343 163.099 106.16 163.099 107.167C163.099 108.175 163.916 108.992 164.924 108.992Z" fill="#DEE8F5"/>
<path d="M161.176 105.781H149.513V108.554H161.176V105.781Z" fill="#DEE8F5"/>
<path d="M299.698 87.9321L305.469 112.16C305.626 112.821 305.514 113.518 305.157 114.098C304.801 114.677 304.229 115.091 303.567 115.249C303.374 115.296 303.175 115.319 302.975 115.319H268.948C268.386 115.319 267.84 115.134 267.393 114.793C266.946 114.453 266.623 113.974 266.474 113.432L259.825 89.2041C259.721 88.8232 259.706 88.4234 259.781 88.0358C259.856 87.6482 260.02 87.2831 260.259 86.9691C260.499 86.6551 260.808 86.4005 261.161 86.2253C261.515 86.05 261.905 85.9588 262.3 85.9586H297.203C297.78 85.9592 298.34 86.1542 298.793 86.5123C299.245 86.8704 299.564 87.3706 299.698 87.9321Z" fill="#073341"/>
<path d="M317.581 115.318H276.458C276.058 115.318 275.675 115.159 275.392 114.876C275.109 114.593 274.951 114.21 274.951 113.81C274.951 113.41 275.109 113.027 275.392 112.744C275.675 112.461 276.058 112.302 276.458 112.302H317.581C317.981 112.302 318.365 112.461 318.648 112.744C318.93 113.027 319.089 113.41 319.089 113.81C319.089 114.21 318.93 114.593 318.648 114.876C318.365 115.159 317.981 115.318 317.581 115.318Z" fill="#073341"/>
<path d="M281.253 104.423C283.476 104.423 285.277 102.621 285.277 100.399C285.277 98.1766 283.476 96.375 281.253 96.375C279.031 96.375 277.229 98.1766 277.229 100.399C277.229 102.621 279.031 104.423 281.253 104.423Z" fill="white"/>
<path d="M201.909 107.325C201.909 105.853 201.323 104.443 200.283 103.403C199.242 102.363 197.831 101.779 196.359 101.779V99.5216H183.778V115.601H196.359V112.875C197.088 112.875 197.81 112.731 198.483 112.453C199.157 112.174 199.769 111.765 200.284 111.249C200.799 110.734 201.208 110.122 201.487 109.449C201.766 108.775 201.91 108.054 201.909 107.325ZM196.359 110.584V104.072C196.793 104.062 197.225 104.138 197.63 104.297C198.034 104.456 198.402 104.694 198.713 104.998C199.024 105.301 199.271 105.663 199.439 106.064C199.608 106.464 199.695 106.894 199.695 107.328C199.695 107.762 199.608 108.192 199.439 108.593C199.271 108.993 199.024 109.355 198.713 109.659C198.402 109.962 198.034 110.2 197.63 110.359C197.225 110.518 196.793 110.594 196.359 110.584Z" fill="#C1D8ED"/>
<path d="M112.711 29.3955C119.689 29.3955 125.345 23.7394 125.345 16.7622C125.345 9.78509 119.689 4.129 112.711 4.129C105.734 4.129 100.078 9.78509 100.078 16.7622C100.078 23.7394 105.734 29.3955 112.711 29.3955Z" fill="#C1D8ED"/>
<path d="M115.286 29.3955C122.263 29.3955 127.919 23.7394 127.919 16.7622C127.919 9.78509 122.263 4.129 115.286 4.129C108.309 4.129 102.653 9.78509 102.653 16.7622C102.653 23.7394 108.309 29.3955 115.286 29.3955Z" fill="#DEE8F5"/>
<path d="M115.286 27.5341C121.235 27.5341 126.058 22.7114 126.058 16.7622C126.058 10.813 121.235 5.9903 115.286 5.9903C109.337 5.9903 104.514 10.813 104.514 16.7622C104.514 22.7114 109.337 27.5341 115.286 27.5341Z" fill="#F3F5FD"/>
<path d="M115.287 17.7566C115.198 17.7565 115.111 17.7337 115.034 17.6905L109.837 14.7688C109.778 14.7357 109.726 14.6913 109.684 14.6381C109.642 14.585 109.612 14.5241 109.593 14.459C109.556 14.3275 109.573 14.1868 109.64 14.0677C109.707 13.9486 109.818 13.861 109.95 13.8241C110.081 13.7872 110.222 13.8041 110.341 13.8709L114.771 16.3611V9.2823C114.776 9.14842 114.832 9.02139 114.928 8.92813C115.024 8.83487 115.153 8.78271 115.286 8.78271C115.42 8.78271 115.549 8.83487 115.645 8.92813C115.741 9.02139 115.797 9.14842 115.801 9.2823V17.2413C115.801 17.3779 115.747 17.5088 115.651 17.6054C115.554 17.702 115.423 17.7563 115.287 17.7566Z" fill="#DEE8F5"/>
</g>
<defs>
<clipPath id="clip0_431_319">
<rect width="402.436" height="229" fill="white" transform="translate(0.781982)"/>
</clipPath>
</defs>
</svg>
