<svg width="325" height="324" viewBox="0 0 325 324" fill="none" xmlns="http://www.w3.org/2000/svg">
<path d="M114.395 206.306C115.216 207.127 114.491 208.422 113.41 208.002C113.347 207.977 113.282 207.952 113.218 207.926C111.819 207.366 110.7 207.087 109.582 206.527C107.064 205.408 104.827 204.01 102.589 202.332C98.114 199.255 94.478 195.06 91.681 190.025C88.884 185.27 87.2059 179.676 86.9262 174.362C86.6465 171.565 86.9262 169.048 87.2059 166.251C87.4855 164.852 87.7652 163.734 88.0449 162.335C88.0548 162.286 88.065 162.237 88.0755 162.189C88.2063 161.584 89.3994 161.718 89.4434 162.335C89.4434 163.734 89.7231 164.852 90.0028 166.251C90.2825 168.768 90.8419 171.285 91.4013 173.523C92.5201 178.278 94.1983 182.753 96.7155 186.948C99.2328 191.144 102.03 195.06 105.666 198.696C107.344 200.374 109.302 202.052 111.26 203.73C112.082 204.553 113.173 205.375 114.27 206.198C114.314 206.231 114.356 206.267 114.395 206.306Z" fill="#B7F2A2"/>
<path d="M113.05 218.577C114.291 218.817 114.443 219.926 113.218 220.233C111.191 220.739 109.109 221.008 107.024 221.142C105.942 221.212 104.825 221.212 103.708 221.072C99.5125 220.792 95.0373 219.673 91.4013 217.716C87.4855 215.758 84.1292 212.681 81.8916 209.045C80.7728 207.367 79.654 205.409 78.815 203.451C78.5463 202.645 78.2776 201.581 78.009 200.507C77.987 200.419 77.9767 200.343 77.974 200.252C77.9436 199.265 78.7871 198.867 79.4498 199.599C79.5182 199.675 79.5861 199.747 79.654 199.815C80.4931 200.654 81.0525 201.493 81.6119 202.053C83.0104 203.451 84.1292 204.85 85.5277 205.968C88.3246 208.486 91.1216 210.723 94.4779 212.401C97.5546 214.08 101.191 215.478 104.547 216.597C106.225 217.156 108.183 217.436 110.141 217.995C110.98 218.275 112.099 218.275 112.938 218.555C112.976 218.562 113.013 218.57 113.05 218.577Z" fill="#B7F2A2"/>
<path d="M182.303 85.6987C181.522 84.9966 182.078 84.0286 183.048 84.4284C183.171 84.4787 183.295 84.5293 183.421 84.5799C184.82 85.1393 185.939 85.6987 187.057 86.2581C189.575 87.6566 191.812 89.055 194.05 90.7332C198.525 94.0896 202.161 98.5647 204.678 103.599C207.196 108.634 208.594 114.228 208.594 119.542C208.594 122.339 208.314 124.856 207.755 127.653C207.475 129.052 207.196 130.17 206.636 131.569C206.233 132.578 205.035 132.373 204.958 131.289C204.958 129.891 204.958 128.772 204.678 127.373L203.839 119.822C203 115.067 201.322 110.312 199.084 105.837C196.847 101.362 194.05 97.4459 190.693 93.8099C189.015 91.852 187.057 90.1738 185.379 88.216C184.54 87.3769 183.421 86.5378 182.303 85.6987Z" fill="#B7F2A2"/>
<path d="M205.586 84.3833C205.227 83.6457 205.856 82.6786 206.546 83.1223C206.607 83.1612 206.671 83.1925 206.738 83.2163C207.564 83.5059 208.628 84.0428 209.433 84.5798C211.111 85.6985 212.789 86.8173 214.468 88.2158C217.544 91.0128 220.062 94.3691 221.46 98.2849C223.138 102.201 223.698 106.396 223.138 110.592C222.858 112.549 222.299 114.507 221.74 116.465C221.476 117.255 220.965 118.292 220.673 119.111C220.637 119.211 220.592 119.305 220.535 119.394C219.966 120.291 218.943 119.965 218.943 118.903V116.185C218.943 112.642 218.511 109.088 217.721 105.633C217.336 103.953 216.846 102.342 216.146 100.802C214.747 97.4458 213.069 94.6488 211.111 91.5722C209.992 90.1737 208.874 88.4955 207.755 87.097C207.225 86.3024 206.695 85.7586 205.928 84.9905C205.842 84.9041 205.774 84.8004 205.726 84.6882C205.681 84.5834 205.634 84.4818 205.586 84.3833Z" fill="#B7F2A2"/>
<path d="M100.072 123.737C94.4777 126.254 92.5198 132.967 95.0371 138.561L130.279 212.121L149.858 202.891L114.616 129.051C112.099 123.457 105.666 120.94 100.072 123.737Z" fill="#FFDD67"/>
<path d="M192.651 182.194L213.348 172.404L173.072 88.4955C170.275 82.9016 163.563 80.3843 157.689 83.1813C152.095 85.9782 149.578 92.691 152.375 98.5646L192.651 182.194Z" fill="#FFDD67"/>
<path d="M157.969 82.9016C157.409 83.1813 156.85 83.461 156.291 84.0204C161.605 82.6219 167.199 85.1392 169.716 90.1737L209.992 174.083L213.628 172.404L173.352 88.4955C170.555 82.6219 163.842 80.1046 157.969 82.9016Z" fill="#EBA352"/>
<path d="M149.858 202.612L171.394 192.263L130.279 106.676C127.482 100.802 120.21 98.0055 114.336 100.802C108.463 103.599 105.945 110.871 108.742 116.745L149.858 202.612Z" fill="#FFDD67"/>
<path d="M114.336 101.082C113.777 101.362 113.217 101.642 112.658 102.201C117.972 100.803 124.126 103.32 126.643 108.634L152.095 162.056L158.249 165.692L130.279 106.956C127.482 100.803 120.49 98.2854 114.336 101.082Z" fill="#EBA352"/>
<path d="M168.038 185.551L189.575 175.202L148.459 89.6149C145.662 83.7413 138.39 80.9443 132.517 84.021C126.643 86.818 124.126 94.0901 126.923 99.9637L168.038 185.551Z" fill="#FFDD67"/>
<path d="M132.517 83.741C131.957 84.0207 131.398 84.5801 130.838 84.8598C136.153 83.4613 142.306 85.9786 144.823 91.2928L173.632 151.707L179.785 155.343L148.459 89.6146C145.662 83.4613 138.39 80.944 132.517 83.741Z" fill="#EBA352"/>
<path d="M100.072 123.738C99.5123 124.017 98.9529 124.297 98.3936 124.857C103.428 123.458 108.742 125.975 110.98 131.01L131.957 174.922L138.11 178.558L114.616 129.332C112.099 123.458 105.666 120.941 100.072 123.738Z" fill="#EBA352"/>
<path d="M242.157 115.346C234.606 109.473 222.299 115.906 216.146 136.044C211.95 150.029 211.391 154.224 202.44 158.42L197.406 148.071C197.406 148.071 117.972 186.389 121.049 192.543C121.049 192.543 130.559 222.19 146.781 235.896C170.835 256.593 227.054 234.497 229.571 181.075C230.969 150.029 250.269 121.78 242.157 115.346Z" fill="#FFDD67"/>
<path d="M242.157 115.347C240.759 114.228 239.081 113.668 237.403 113.389C237.682 113.668 238.242 113.668 238.521 113.948C246.912 120.381 238.242 135.205 233.487 148.63C229.571 159.259 226.215 170.167 226.774 180.795C229.012 227.225 182.302 249.321 154.333 240.93C181.743 252.398 232.648 230.581 230.41 182.194C229.851 171.565 232.927 161.217 237.123 150.029C241.598 136.603 250.269 121.78 242.157 115.347Z" fill="#EBA352"/>
<path d="M204.958 157.301C187.617 159.259 162.164 184.152 180.065 211.283C166.919 183.872 188.456 165.412 202.161 158.979C203.559 157.861 204.958 157.301 204.958 157.301Z" fill="#EBA352"/>
<rect x="4.22414" y="3.72414" width="316.552" height="316.552" rx="158.276" stroke="#B7F2A2" stroke-width="7.44828" stroke-dasharray="14.9 14.9" style="mix-blend-mode:overlay"/>
</svg>
